<?xml version="1.0" encoding="UTF-8" standalone="no"?>
<!-- Created with Inkscape (http://www.inkscape.org/) -->

<svg
   version="1.1"
   id="svg1"
   width="2048"
   height="2048"
   viewBox="0 0 2048 2048"
   sodipodi:docname="croshare_logo.svg"
   inkscape:version="1.4.2 (ebf0e940d0, 2025-05-08)"
   inkscape:export-filename="croshare_logo.png"
   inkscape:export-xdpi="48"
   inkscape:export-ydpi="48"
   xmlns:inkscape="http://www.inkscape.org/namespaces/inkscape"
   xmlns:sodipodi="http://sodipodi.sourceforge.net/DTD/sodipodi-0.dtd"
   xmlns="http://www.w3.org/2000/svg"
   xmlns:svg="http://www.w3.org/2000/svg">
  <defs
     id="defs1" />
  <sodipodi:namedview
     id="namedview1"
     pagecolor="#ffffff"
     bordercolor="#000000"
     borderopacity="0.25"
     inkscape:showpageshadow="2"
     inkscape:pageopacity="0.0"
     inkscape:pagecheckerboard="0"
     inkscape:deskcolor="#d1d1d1"
     inkscape:zoom="0.45654032"
     inkscape:cx="937.48566"
     inkscape:cy="753.49315"
     inkscape:window-width="1920"
     inkscape:window-height="1011"
     inkscape:window-x="0"
     inkscape:window-y="0"
     inkscape:window-maximized="1"
     inkscape:current-layer="g9" />
  <g
     inkscape:groupmode="layer"
     inkscape:label="Image"
     id="g1">
    <g
       id="g9"
       transform="translate(0,79.175258)">
      <path
         style="fill:#be6c4c"
         d="m 983.72828,1660.0546 c -33.9844,-2.6228 -78.5269,-8.595 -100.5,-13.4751 -50.4473,-11.2041 -97.256,-25.8811 -133.5,-41.8595 -1.65,-0.7274 -6.825,-2.9905 -11.5,-5.0291 -4.675,-2.0387 -11.425,-5.0486 -15,-6.6889 -3.575,-1.6402 -8.525,-3.88 -11,-4.9774 -11.7837,-5.2247 -48,-24.8126 -48,-25.9611 0,-0.4626 -0.5867,-0.8411 -1.3038,-0.8411 -2.1411,0 -7.2765,-6.0582 -11.13735,-13.1387 -4.5152,-8.2804 -6.9257,-19.166 -6.0589,-27.3613 1.7132,-16.1959 9.3194,-28.8973 24.38615,-40.7221 7.8114,-6.1305 11.6361,-9.6773 30.4942,-28.2779 23.9475,-23.6205 38.8031,-41.9279 62.0765,-76.5 13.6742,-20.3127 32.7743,-48.5515 40.2558,-59.5166 2.633,-3.8592 7.6397,-10.7879 11.1258,-15.3971 3.4861,-4.6092 6.8209,-9.4392 7.4105,-10.7333 0.5897,-1.2942 1.3817,-2.353 1.7602,-2.353 0.6077,0 9.6733,-11.1165 17.1256,-21 1.4515,-1.925 5.84,-7.0479 9.7522,-11.3842 3.9122,-4.3363 7.1131,-8.5125 7.1131,-9.2805 0,-0.768 -1.6875,-2.8444 -3.75,-4.6142 -2.0625,-1.7697 -6.3375,-5.6495 -9.5,-8.6216 -3.1625,-2.9722 -5.75,-5.006 -5.75,-4.5196 0,0.4864 -1.0812,-0.6826 -2.4027,-2.5978 -1.3214,-1.9151 -7.7339,-8.2071 -14.25,-13.9821 -13.4722,-11.9401 -35.1122,-33.6999 -56.3473,-56.6591 -19.4316,-21.0092 -18.7786,-20.3409 -19.873,-20.3409 -2.0219,0 -14.1156,22.2196 -34.562,63.5 -7.3552,14.85 -14.9564,28.9954 -16.8915,31.4342 -4.3117,5.4341 -8.8474,7.9687 -14.3584,8.0239 -10.7076,0.1072 -17.3151,-6.8367 -17.3151,-18.1967 0,-4.3444 1.4281,-7.8749 10.9734,-27.1279 6.0353,-12.1734 13.0639,-25.9585 15.6191,-30.6335 2.5551,-4.675 6.3176,-11.65 8.3609,-15.5 6.6037,-12.4423 11.1431,-20.7979 16.6514,-30.6497 2.9673,-5.3073 5.3952,-10.5279 5.3952,-11.6013 0,-1.0734 -1.2375,-3.5665 -2.75,-5.5403 -5.4831,-7.1551 -12.7388,-16.2518 -14.4747,-18.1473 -0.9764,-1.0662 -1.7753,-2.2691 -1.7753,-2.673 0,-0.404 -1.2375,-2.0191 -2.75,-3.589 -1.5125,-1.57 -4.1,-4.6152 -5.75,-6.767 -1.65,-2.1519 -4.4657,-5.7395 -6.2571,-7.9725 -3.7906,-4.7249 -3.6956,-4.5964 -8.1926,-11.0835 -1.8974,-2.737 -4.1474,-5.6577 -5,-6.4905 -0.8527,-0.8327 -2.0485,-2.4077 -2.6575,-3.5 -2.0353,-3.6507 -3.8145,-2.7999 -5.7253,2.7378 -1.0013,2.902 -3.654,10.0013 -5.8949,15.7763 -10.50935,27.0841 -21.16545,58.9579 -31.21765,93.3763 -4.9556,16.9677 -14.5549,54.6787 -14.5549,57.179 0,0.8956 0.9262,2.8246 2.0583,4.2865 1.132,1.462 4.8058,6.4832 8.1639,11.1582 10.5945,14.7493 14.1526,19.3703 18.59,24.1431 9.4478,10.1622 10.7194,13.4608 7.7634,20.139 -2.976,6.7234 -12.345,13.8336 -20.1603,15.2998 -3.1291,0.587 -3.8426,0.2399 -7.6824,-3.7369 -2.3281,-2.4112 -7.3805,-8.3127 -11.2276,-13.1145 -3.847,-4.8018 -7.2757,-8.7305 -7.6191,-8.7305 -0.3435,0 -0.8804,1.4625 -1.1931,3.25 -0.3127,1.7875 -1.484,8.425 -2.6029,14.75 -1.1189,6.325 -2.4804,14.65 -3.0256,18.5 -1.8115,12.7924 -2.1392,14.9807 -2.6206,17.5 -0.2628,1.375 -0.6876,3.625 -0.944,5 -1.3037,6.9901 -1.8672,9.0055 -4.1937,15 -1.3875,3.575 -3.0589,7.175 -3.7141,8 -0.6552,0.825 -2.0579,3.1859 -3.1172,5.2463 -3.2844,6.389 -17.1121,19.1769 -25.5239,23.6045 -15.2441,8.0239 -35.3153,8.4122 -50.4162,0.9753 -7.5022,-3.6947 -21.4956,-15.1288 -21.5509,-17.6094 -0.01,-0.3942 -1.2463,-2.1249 -2.75,-3.8459 -2.8561,-3.269 -4.0711,-4.8815 -17.2329,-22.8708 -12.1844,-16.6535 -24.8211,-35.3232 -29.4433,-43.5 -1.399,-2.475 -3.6479,-6.3 -4.9975,-8.5 -3.518,-5.7348 -9.8277,-16.5727 -11.3527,-19.5 -0.7163,-1.375 -2.849,-5.2 -4.7393,-8.5 -3.4966,-6.1042 -12.9854,-25.1243 -17.9597,-36 -7.042,-15.3964 -15.3343,-34.3789 -16.5999,-38 -0.7689,-2.2 -1.6332,-4.225 -1.9207,-4.5 -0.2874,-0.275 -1.0227,-2.3 -1.6338,-4.5 -0.6112,-2.2 -3.4815,-10.75 -6.3785,-19 -16.5677,-47.1805 -29.2334,-106.3936 -32.513,-151.99997 -0.3165,-4.4 -0.7541,-9.125 -0.9725,-10.5 -3.3357,-20.99478 -3.3059,-85.33266 0.056,-119.99998 2.814,-29.02113 7.5996,-64.80835 8.961,-67.01118 0.2159,-0.34923 0.8455,-3.30208 1.3992,-6.56189 0.5538,-3.25981 1.2497,-7.05193 1.5465,-8.42693 0.2969,-1.375 0.8177,-4.075 1.1575,-6 0.6645,-3.76514 2.7112,-11.82778 9.773,-38.5 7.167,-27.06899 7.3694,-27.7702 9.3819,-32.5 1.0531,-2.475 4.2827,-11.7 7.1769,-20.5 2.8942,-8.8 5.6112,-16.45 6.0378,-17 0.4265,-0.55 1.1171,-2.125 1.5346,-3.5 2.9545,-9.73066 26.4058,-58.94731 32.6396,-68.5 1.7946,-2.75 3.7744,-5.9 4.3995,-7 0.6252,-1.1 2.3031,-4.06086 3.7287,-6.57968 3.5903,-6.34346 20.9039,-31.94936 25.7376,-38.06439 2.1892,-2.76954 3.9814,-5.33262 3.9827,-5.69573 0.001,-0.36311 1.3733,-2.2352 3.0489,-4.1602 1.6757,-1.925 6.2672,-7.325 10.2036,-12 3.9363,-4.675 9.8841,-11.425 13.2172,-15 3.3332,-3.575 8.9557,-9.875 12.4944,-14 14.7907,-17.24093 47.8605,-48.78706 71.2845,-68 10.8337,-8.88606 20.3046,-16.35281 27.249,-21.48275 9.4184,-6.95755 38.199,-26.51725 39.018,-26.51725 0.3115,0 1.1099,-0.46715 1.7742,-1.0381 10.1751,-8.74557 75.24785,-43.9619 81.23275,-43.9619 0.8113,0 1.475,-0.45 1.475,-1 0,-0.55 0.4186,-1 0.9302,-1 0.5116,0 3.7741,-1.30187 7.25,-2.89304 3.4759,-1.59117 8.3448,-3.79456 10.8198,-4.89641 2.475,-1.10186 6.3,-2.8101 8.5,-3.7961 2.2,-0.986 4.45,-1.86244 5,-1.94766 0.55,-0.0852 2.2668,-0.67509 3.8151,-1.31086 1.5483,-0.63576 3.3708,-1.15593 4.05,-1.15593 0.6792,0 1.6624,-0.40413 2.1849,-0.89808 1.1253,-1.06379 39.1465,-13.93145 51.6972,-17.49604 4.8109,-1.3664 9.303,-2.82789 9.9824,-3.24778 0.6794,-0.41988 1.9181,-0.86626 2.7528,-0.99195 0.8347,-0.1257 6.0176,-1.39492 11.5176,-2.8205 16.062,-4.16321 58.9707,-13.16005 71.5,-14.99169 13.0808,-1.91226 34.1777,-4.68557 39,-5.12676 3.025,-0.27676 7.525,-0.69753 10,-0.93504 2.475,-0.23751 8.55,-0.68709 13.5,-0.99908 4.95,-0.31198 11.2858,-0.75977 14.0795,-0.99508 24.82792,-2.09122 91.01832,-1.21761 118.84802,1.5686 15.2374,1.5255 46.756,5.84708 58.5725,8.03097 5.775,1.06732 16.575,3.02825 24,4.35763 27.9237,4.99944 56.6883,13.784 79.5,24.27889 11.629,5.35009 37.2454,20.03977 40.4681,23.20641 0.873,0.85772 3.3747,2.74736 5.5595,4.19919 9.6165,6.3903 23.2759,21.02002 32.208,34.4961 0.6796,1.02532 2.5839,3.88921 4.2318,6.36421 1.6479,2.475 3.0044,5.0074 3.0144,5.62756 0.01,0.62015 0.7041,1.69678 1.5424,2.3925 0.8383,0.69572 1.2922,1.49691 1.0086,1.78043 -0.2835,0.28352 -0.1078,1.0069 0.3903,1.6075 2.1104,2.5442 9.9434,28.80152 11.0089,36.90297 1.4166,10.77215 1.4558,31.38847 0.08,42.18904 -1.1549,9.06737 -4.6066,25.99337 -5.9139,29 -0.4783,1.1 -2.5436,6.725 -4.5896,12.5 -3.1988,9.02915 -5.9726,14.84867 -16.5481,34.71912 -2.6843,5.04354 -14.8558,21.02675 -16.4896,21.65373 -0.809,0.31041 -1.4708,1.14777 -1.4708,1.86079 0,0.71303 -6.6375,7.83618 -14.75,15.82923 -22.107,21.78149 -38.9656,35.36773 -51.75,41.70511 -7.9963,3.96384 -47.1165,26.1181 -51.2755,29.03792 -2.6892,1.888 -11.6075,7.40883 -16.9132,10.4701 -16.0895,9.28321 -29.5027,18.57373 -29.1179,20.16817 0.1686,0.69863 7.8139,9.097 16.9894,18.66303 9.1756,9.56604 19.4783,20.7678 22.8949,24.8928 3.4166,4.125 6.8199,7.85874 7.5627,8.29719 0.7429,0.43846 3.8013,4.03846 6.7966,8 2.9952,3.96155 9.7479,12.37781 15.0061,18.70281 5.2581,6.325 11.6911,14.2 14.2954,17.5 2.6044,3.3 7.2162,8.54433 10.2484,11.65407 3.0483,3.12624 5.3685,6.36757 5.1898,7.25 -0.1779,0.87776 0.083,1.59593 0.5805,1.59593 0.497,0 2.4351,2.1375 4.3066,4.75 1.8716,2.6125 3.9478,5.425 4.6138,6.25 0.666,0.825 3.3597,4.425 5.9859,8 2.6262,3.575 5.0137,6.725 5.3057,7 0.2919,0.275 1.3487,2.11241 2.3484,4.08312 0.9997,1.97072 2.8153,4.67072 4.0347,6 2.9587,3.22533 8.0825,10.53798 10.627,15.16688 1.1337,2.0625 2.5022,3.75 3.041,3.75 0.5388,0 0.9797,0.57951 0.9797,1.28779 0,0.70829 3.0375,6.01858 6.75,11.80065 7.8597,12.24115 5.9595,9.13338 21.0404,34.41156 11.1079,18.61872 19.5002,33.5483 26.9681,47.9753 1.7012,3.2863 3.507,6.1132 4.0129,6.2818 0.506,0.1687 4.4769,-3.3844 8.8243,-7.8957 4.3474,-4.5113 10.1543,-10.5286 12.9043,-13.3719 2.75,-2.8432 7.7,-8.23921 11,-11.99108 3.3,-3.75186 6.9368,-7.76136 8.0817,-8.90999 1.145,-1.14864 4.97,-5.68843 8.5,-10.08843 3.5301,-4.4 6.7558,-8.15 7.1683,-8.33333 0.4125,-0.18334 0.75,-0.72201 0.75,-1.19705 0,-0.6926 4.3365,-6.90433 10.7996,-15.46962 3.4292,-4.54465 5.2004,-7.5348 5.2004,-8.77953 0,-3.2681 -9.2296,-22.15132 -23.0801,-47.22047 -7.1405,-12.92425 -8.2812,-14.99887 -11.0664,-20.12714 -1.4556,-2.68007 -5.6181,-9.76822 -9.25,-15.75144 -3.6319,-5.98321 -6.6035,-11.06603 -6.6035,-11.29516 0,-0.22912 -2.1375,-3.67158 -4.75,-7.64991 -7.1212,-10.84415 -7.3174,-11.17524 -12.6726,-21.38567 -2.4861,-4.73993 -1.2629,-9.08841 4.2595,-15.14257 5.1654,-5.66286 10.0701,-8.14811 16.0804,-8.14811 3.3187,0 4.7389,0.71552 8.5321,4.29866 2.5028,2.36426 4.5506,4.76951 4.5506,5.34501 0,0.57549 0.818,1.78664 1.8178,2.69144 0.9998,0.9048 2.876,3.78704 4.1695,6.40499 1.2934,2.61794 2.6277,4.9849 2.9651,5.2599 0.5933,0.4835 6.5817,10.49665 10.9526,18.3138 2.1175,3.7869 3.4196,5.96513 7.5838,12.6862 7.2918,11.76906 12.6828,21.53363 24.0164,43.5 2.8377,5.5 5.7606,10 6.4953,10 0.7388,0 4.1379,-6.03338 7.6056,-13.5 3.4484,-7.425 7.6253,-16.425 9.2821,-20 9.6442,-20.81056 20.7175,-51.3179 24.6272,-67.84856 1.5099,-6.38407 4.9757,-23.06602 5.9524,-28.65144 2.813,-16.08461 3.6281,-22.6315 5.0427,-40.5 0.5404,-6.82502 0.5307,-37.886 -0.017,-56.20828 -0.4676,-15.63152 0.5728,-20.77078 6.031,-29.79172 4.4481,-7.35134 7.723,-10.29505 15.4917,-13.9249 9.9188,-4.63445 24.797,-4.79605 38.4842,-0.41801 7.7521,2.47962 25.8502,11.75891 33.2711,17.05883 6.6362,4.73948 24.3748,21.96883 29.2703,28.42994 4.8869,6.44992 23.9586,38.70472 23.9586,40.51988 0,0.34342 1.5281,3.82162 3.3958,7.72933 5.8289,12.19587 15.0538,35.94431 25.2894,65.10493 1.3514,3.85 2.8651,7.9 3.3637,9 0.4986,1.1 2.5279,7.625 4.5095,14.5 1.9816,6.875 4.2883,14.75 5.1261,17.5 0.8378,2.75 1.6584,5.675 1.8236,6.5 0.1652,0.825 2.1343,8.7 4.3758,17.5 4.8813,19.16368 9.5008,43.28671 13.5768,70.89782 0.3165,2.14381 0.7849,4.84381 1.041,6 0.2561,1.1562 1.1392,8.85218 1.9625,17.10218 1.4563,14.59304 1.7766,18.43528 3.5435,42.5 0.868,11.8217 0.6014,87.52555 -0.324,91.99995 -0.2844,1.375 -0.8089,5.875 -1.1656,10 -1.2369,14.3027 -1.6109,17.5923 -4.0932,36 -2.2814,16.9176 -7.2184,46.7985 -7.9307,48 -0.163,0.275 -0.5624,2.181 -0.8876,4.2355 -0.8952,5.6574 -9.345,38.7542 -13.2156,51.7645 -8.3961,28.2214 -19.2579,58.4412 -28.5746,79.5 -1.7033,3.85 -5.4408,12.4 -8.3057,19 -5.3293,12.2775 -19.1396,39.6423 -24.9813,49.5 -1.7926,3.025 -6.1213,10.45 -9.6192,16.5 -3.4979,6.05 -6.7087,11.15 -7.135,11.3333 -0.4264,0.1834 -0.7752,0.7452 -0.7752,1.2486 0,0.8458 -8.1552,13.4253 -19.7425,30.4532 -2.633,3.8693 -8.1556,11.3581 -12.2724,16.6419 -22.8307,29.3024 -25.9626,33.2727 -29.3301,37.1815 -1.0148,1.1778 -3.4898,4.1329 -5.5,6.5667 -10.7641,13.0324 -46.9524,49.768 -61.155,62.0798 -5.225,4.5294 -10.625,9.3262 -12,10.6596 -1.375,1.3334 -4.75,4.2496 -7.5,6.4804 -2.75,2.2308 -5.9015,4.7983 -7.0033,5.7055 -1.1018,0.9072 -4.0268,3.19 -6.5,5.0729 -2.4732,1.8828 -4.9467,3.9128 -5.4967,4.511 -0.9506,1.034 -10.6422,8.2 -26,19.2247 -11.1219,7.9839 -33.125,22.3409 -34.239,22.3409 -0.5588,0 -1.5641,0.6602 -2.2338,1.4672 -0.6697,0.8069 -3.9873,3.059 -7.3724,5.0047 -3.3851,1.9456 -7.9548,4.641 -10.1548,5.9898 -2.2,1.3488 -5.8,3.3692 -8,4.4898 -2.2,1.1207 -7.825,4.1201 -12.5,6.6653 -9.3598,5.0959 -27.7484,14.3832 -28.4782,14.3832 -0.2544,0 -2.8384,1.0855 -5.7422,2.4123 -41.3878,18.9106 -79.6683,32.3536 -118.2796,41.5363 -7.15,1.7005 -14.8,3.5286 -17,4.0625 -5.1648,1.2533 -26.9804,5.4114 -36,6.8615 -20.4324,3.2851 -27.5511,4.1916 -44,5.6029 -9.9,0.8494 -20.475,1.7685 -23.5,2.0425 -10.92,0.989 -72.77542,1.219 -84.50002,0.3142 z m 31.44142,-35.7782 c 5.6073,-0.5755 13.8768,-1.9817 18.3768,-3.1251 8.0564,-2.047 27.5363,-10.8437 29.6484,-13.3887 0.8449,-1.0181 -0.4956,-2.0403 -6.1261,-4.6717 -3.9643,-1.8527 -9.9377,-4.8066 -13.2741,-6.5643 -3.3365,-1.7577 -11.6914,-6.0327 -18.5664,-9.5 -6.875,-3.4673 -12.725,-6.5641 -13,-6.8818 -0.275,-0.3177 -3.425,-2.1602 -7,-4.0946 -6.68402,-3.6165 -14.52892,-8.0849 -28.50002,-16.2336 -7.8283,-4.5659 -8.1395,-4.6537 -14.5,-4.0906 -11.5405,1.0216 -16.3285,1.3939 -25.5,1.9827 -4.95,0.3178 -11.7,0.7915 -15,1.0527 -20.8577,1.6507 -95.113,1.0579 -123.5,-0.9859 -28.2363,-2.033 -37.6056,-2.879 -56.3954,-5.092 -21.2333,-2.5009 -25.4785,-2.8262 -22.6046,-1.7322 0.825,0.314 1.725,0.8414 2,1.172 0.5053,0.6073 6.5702,3.5969 13,6.408 1.925,0.8416 8,3.6379 13.5,6.214 11.9615,5.6025 29.0223,12.9354 32.5,13.9689 1.375,0.4086 4.75,1.7306 7.5,2.9378 2.75,1.2072 7.025,2.8231 9.5,3.5907 2.475,0.7677 4.725,1.6448 5,1.9491 0.5282,0.5846 29.9952,10.2991 38.5,12.6925 8.1712,2.2996 27.3514,7.0922 37,9.2455 4.95,1.1046 14.175,3.1601 20.5,4.5676 12.5179,2.7857 49.2245,7.7012 71.5,9.5748 7.7,0.6477 14.0781,1.2389 14.1736,1.3139 0.9267,0.7275 23.32162,0.5057 31.26782,-0.3097 z m 113.0586,-7.0823 c 33.5429,-5.4376 56.2626,-10.9061 94,-22.6252 26.9584,-8.3717 32.8032,-10.5955 64.5,-24.5408 14.3075,-6.2947 38.0945,-18.3781 53.3108,-27.0809 8.6291,-4.9353 16.5955,-9.4799 17.7033,-10.0991 1.1077,-0.6191 3.4272,-2.1382 5.1543,-3.3757 1.7272,-1.2375 3.413,-2.25 3.7462,-2.25 0.3333,0 2.7388,-1.4919 5.3457,-3.3154 2.6068,-1.8235 9.2397,-6.3974 14.7397,-10.1643 12.1198,-8.3007 15.7505,-11.0099 35.0885,-26.1821 16.1265,-12.6527 18.948,-15.135 18.1311,-15.9519 -0.2852,-0.2852 -4.821,-0.039 -10.0796,0.5476 -17.5849,1.9608 -51.732,1.2222 -76.14,-1.647 -13.4977,-1.5866 -17.2251,-1.052 -28.5,4.0879 -5.775,2.6326 -15.225,6.5059 -21,8.6072 -5.775,2.1014 -14.325,5.2363 -19,6.9665 -16.5155,6.1124 -51.2478,17.2697 -59.1186,18.991 -2.5402,0.5555 -5.9117,1.5017 -7.4923,2.1027 -1.5805,0.6009 -9.1772,2.655 -16.8814,4.5646 -7.7042,1.9096 -15.1327,3.9151 -16.5077,4.4566 -1.7514,0.6899 -3.6965,3.4308 -6.4956,9.1531 -13.5432,27.6868 -32.7666,54.0062 -58.0728,79.5092 -5.5808,5.6242 -9.9753,10.3972 -9.7657,10.6069 0.2096,0.2096 1.383,0.2201 2.6076,0.023 1.2246,-0.1968 7.8515,-1.2697 14.7265,-2.3842 z m -10.5286,-58.9827 c 9.0261,-11.6284 18.543,-25.4842 17.6974,-25.7661 -0.4859,-0.1619 -7.3601,0.8453 -15.2761,2.2384 -30.7638,5.4139 -65.2552,11.0362 -80.3927,13.1044 -8.3158,1.1362 -8.6353,1.9435 -1.9701,4.9788 3.2836,1.4953 6.1951,3.0199 6.4701,3.388 0.5383,0.7206 23.604,11.7857 41.5,19.9084 l 11,4.9927 8.3468,-8.6668 c 4.5908,-4.7667 10.2718,-11.1468 12.6246,-14.1778 z m -199.04572,-34.9213 c 1.5857,-0.5905 0.2652,-1.8515 -7.4796,-7.1424 -5.173,-3.5339 -11.4395,-7.9007 -13.9257,-9.7039 -2.4862,-1.8033 -5.3079,-3.5432 -6.2704,-3.8667 -0.9625,-0.3234 -1.75,-0.9739 -1.75,-1.4457 0,-0.4717 -1.3373,-1.5492 -2.9717,-2.3944 -2.4692,-1.2768 -16.6803,-12.089 -21.994,-16.7335 -1.5571,-1.361 -8.5243,-7.103 -11.0343,-9.0939 -0.825,-0.6544 -6.9,-5.4447 -13.5,-10.6451 -6.6,-5.2004 -12.4973,-9.94 -13.1052,-10.5324 -0.6078,-0.5925 -3.9393,-3.537 -7.4031,-6.5435 -3.4639,-3.0064 -10.3916,-9.0181 -15.3949,-13.3592 -5.0032,-4.3412 -11.8626,-10.5287 -15.243,-13.75 -5.9091,-5.631 -8.3538,-7.0391 -8.3538,-4.8115 0,0.575 -1.125,2.1704 -2.5,3.5454 -1.375,1.375 -2.5072,2.8171 -2.516,3.2046 -0.01,0.3875 -1.2463,2.125 -2.75,3.8612 -1.5037,1.7362 -5.209,6.4156 -8.234,10.3987 -11.245,14.8067 -47.8046,53.4338 -59.5753,62.9446 -3.0632,2.475 -7.1476,6.0433 -9.0766,7.9296 l -3.5072,3.4295 4.8295,1.2129 c 7.4633,1.8743 45.7312,7.8589 57.3296,8.9656 3.575,0.3411 7.625,0.7858 9,0.9882 4.4219,0.6509 40.2498,3.4737 48,3.7818 16.0449,0.6379 105.6056,0.4379 107.4257,-0.2399 z m 76.5743,-5.5853 c 31.56412,-3.5123 70.73422,-9.1778 100.50002,-14.5361 3.9213,-0.7059 48.5749,-10.2566 59.2058,-12.6632 2.9567,-0.6693 4.0494,-2.5297 10.6814,-18.1854 6.1155,-14.4363 13.6214,-37.5752 13.599,-41.9223 -0.012,-2.3745 -0.6589,-2.8802 -5.75,-4.4958 -8.2066,-2.6044 -40.904,-15.6472 -60.2345,-24.0273 -24.9307,-10.8079 -68.9635,-32.8787 -89.0017,-44.6107 -0.825,-0.483 -3.975,-2.0992 -7,-3.5915 -4.7806,-2.3584 -19.10362,-10.857 -44.50002,-26.4044 -3.85,-2.3569 -7.9,-5.0248 -9,-5.9286 -1.1,-0.9038 -3.575,-2.5021 -5.5,-3.5519 -1.925,-1.0497 -4.625,-2.7551 -6,-3.7898 -1.375,-1.0346 -7.6649,-5.2591 -13.9776,-9.3876 -6.3127,-4.1285 -11.7127,-7.8172 -12,-8.1971 -0.2873,-0.3799 -1.2637,-1.1407 -2.1697,-1.6907 -2.8155,-1.7091 -16.9309,-12.1785 -26.2967,-19.5042 -4.9192,-3.8477 -9.4192,-6.9808 -10,-6.9625 -1.5594,0.049 -4.5108,2.8544 -9.4672,8.9985 -2.4262,3.0075 -5.9154,7.0432 -7.7538,8.9682 -8.4433,8.841 -32.1908,40.7934 -49.6784,66.8426 -7.5111,11.1884 -13.6566,20.5441 -13.6566,20.7905 0,0.2463 -0.9845,1.7794 -2.1877,3.4068 l -2.1876,2.959 2.9376,3.1969 c 1.6157,1.7583 3.394,3.671 3.9517,4.2505 2.3562,2.4484 27.2339,25.4221 29.9263,27.636 1.6171,1.3297 4.7671,4.0063 7,5.9479 2.2328,1.9416 6.0847,5.1503 8.5597,7.1305 2.475,1.9803 6.075,4.997 8,6.7039 1.925,1.7069 3.8053,3.1106 4.1786,3.1194 0.3732,0.01 1.2732,0.5951 2,1.303 5.9697,5.8141 47.7053,37.7386 60.8214,46.5235 3.025,2.0261 5.725,3.9101 6,4.1867 1.893,1.9037 28.381,19.0707 41.8209,27.1042 2.6881,1.6068 5.5853,1.6711 17.1791,0.381 z m 219.68212,-42.4088 c 9.8887,-2.4802 53.3894,-16.7451 54.524,-17.8797 0.4437,-0.4437 -7.6337,-3.1735 -17.9497,-6.0662 -10.316,-2.8927 -22.3564,-6.3054 -26.7564,-7.5837 -4.4,-1.2783 -8.6092,-2.4861 -9.3538,-2.6841 -0.9493,-0.2524 -2.318,2.9266 -4.581,10.6401 -1.775,6.05 -4.4076,14.2319 -5.8502,18.182 -2.5429,6.9628 -2.3718,8.6485 0.785,7.7336 0.55,-0.1594 4.6819,-1.2133 9.1821,-2.342 z m 230.9021,-40.9467 c 26.7166,-4.0557 42.5442,-9.9812 52.9158,-19.8105 15.3622,-14.5589 23.4723,-37.5626 27.0821,-76.8164 1.604,-17.4423 3.0591,-58.3868 2.1583,-60.7342 -0.4818,-1.2555 -2.3676,-1.1331 -13.4006,0.87 -7.0619,1.2821 -15.0898,2.558 -17.8398,2.8353 -16.4582,1.6596 -27.6034,2.5263 -40,3.1105 -7.7,0.3629 -14.2674,0.8138 -14.5943,1.0019 -0.3269,0.1881 -0.6596,6.0963 -0.7395,13.1293 -0.08,7.033 -0.353,14.3622 -0.607,16.2872 -0.254,1.925 -0.9584,7.55 -1.5654,12.5 -3.642,29.7029 -13.3622,58.0812 -28.2958,82.6102 -2.878,4.7272 -11.0664,14.9044 -18.3804,22.8447 -1.7503,1.9002 -2.9214,3.8772 -2.6024,4.3933 0.983,1.5905 41.3247,-0.013 55.869,-2.2213 z m -104.0842,-7.1713 c 3.3,-1.8444 6.225,-3.6021 6.5,-3.9061 0.275,-0.304 1.8275,-1.227 3.4499,-2.0511 3.2834,-1.6678 17.7705,-15.6466 21.5924,-20.8348 1.3517,-1.835 2.9229,-3.86 3.4915,-4.5 0.5685,-0.64 2.3533,-3.4136 3.9661,-6.1636 16.6089,-28.3203 23.566,-55.5928 24.744,-97 l 0.2561,-9 -14.5,-1.1788 c -41.8501,-3.4021 -79.6699,-9.1165 -125,-18.8867 -9.075,-1.956 -17.1528,-3.6414 -17.9506,-3.7454 -1.6956,-0.221 -2.5244,3.7493 -3.4047,16.3109 -1.864,26.5965 -8.4853,69.8252 -17.0758,111.4833 -1.9262,9.3409 -3.1797,17.2852 -2.7856,17.6542 0.7853,0.7351 13.3595,5.0272 19.7167,6.7302 2.2,0.5893 7.825,2.1804 12.5,3.5356 7.3346,2.1262 23.1483,6.1263 28.0886,7.105 0.8737,0.1731 3.3487,0.7799 5.5,1.3485 5.5029,1.4543 22.8522,4.6654 32.9114,6.0913 8.0967,1.1477 11.6486,0.5572 18,-2.9925 z m -148.7581,-48.5347 c 1.783,-7.6565 3.4314,-15.2709 3.663,-16.9209 0.2316,-1.65 1.7693,-10.2 3.417,-19 2.5582,-13.6621 3.7658,-21.8909 6.6771,-45.5 0.4226,-3.4269 3.1894,-33.3478 3.8609,-41.7522 0.1869,-2.3387 -0.1552,-4.6455 -0.7601,-5.1261 -0.6049,-0.4807 -12.1792,-4.4957 -25.7206,-8.9222 -35.9036,-11.7364 -55.6791,-19.3536 -91.8792,-35.3903 -11.772,-5.215 -42.6799,-20.698 -45.5,-22.7927 -0.55,-0.4085 -4.375,-2.5588 -8.5,-4.7784 -4.125,-2.2196 -11.0891,-6.1062 -15.4758,-8.6369 -4.3867,-2.5306 -8.4514,-4.6012 -9.0327,-4.6012 -0.956,0 -11.0746,5.2545 -15.95082,8.2831 -6.9122,4.2931 -12.4933,8.177 -15.4474,10.7499 -1.8738,1.6318 -3.8397,2.967 -4.3688,2.967 -0.5292,0 -3.4961,2.0155 -6.5933,4.4788 -3.0972,2.4634 -9.6812,7.6597 -14.6312,11.5474 -4.95,3.8876 -9.675,7.6105 -10.5,8.2729 -15.5672,12.4994 -15.9739,12.8499 -25.1806,21.7009 -4.5254,4.3506 -7.4902,7.945 -7.0604,8.5597 0.9524,1.362 26.1708,20.1743 37.241,27.7808 8.731,5.9992 27.2664,18.5199 36.3698,24.5678 2.8216,1.8746 8.2802,5.2932 12.1302,7.597 3.85002,2.3039 10.74552,6.5076 15.32342,9.3417 4.5779,2.8342 8.4577,5.153 8.6218,5.153 0.1641,0 4.7306,2.5101 10.1477,5.5779 18.1314,10.2682 60.9649,32.5048 67.4071,34.9938 2.475,0.9562 5.175,2.28 6,2.9418 0.825,0.6618 2.85,1.6791 4.5,2.2606 1.65,0.5816 9.525,4.0453 17.5,7.6972 15.2724,6.9936 34.508,14.7049 47.65,19.1024 4.3175,1.4447 8.525,3.0171 9.35,3.4943 0.825,0.4771 1.95,0.7339 2.5,0.5707 0.55,-0.1633 2.4589,-6.5613 4.2419,-14.2178 z m 376.7581,-53.3342 c 17.3144,-27.3451 21.6734,-34.3747 22.546,-36.3598 0.5384,-1.2248 1.929,-3.8019 3.0903,-5.7269 7.8361,-12.9893 22.1976,-41.555 21.6528,-43.0685 -0.159,-0.4417 -4.7891,1.854 -10.2891,5.1017 -13.4376,7.9347 -34.3328,17.919 -37.6676,17.9986 -0.7328,0.017 -2.1137,0.6251 -3.0686,1.3502 -1.5731,1.1945 -1.738,3.8924 -1.7553,28.7182 -0.01,15.0699 -0.3842,30.2123 -0.8303,33.6498 -0.5539,4.2678 -0.4729,6.2473 0.2553,6.2416 0.5866,0 3.3165,-3.5618 6.0665,-7.9049 z m -1055.09127,-1.0867 c -1.406,-6.6269 -3.8284,-20.2903 -4.8754,-27.5 -0.3195,-2.2 -1.2342,-8.0897 -2.0328,-13.0883 -5.5581,-34.7907 -7.4543,-64.9446 -7.006,-111.4117 0.2096,-21.725 0.6018,-40.85 0.8715,-42.5 0.2698,-1.65 0.7635,-7.1562 1.0971,-12.236 l 0.6066,-9.2359 -6.8887,-12.2641 c -14.2852,-25.4318 -17.0794,-30.6663 -24.4291,-45.764 -10.5238,-21.6177 -17.6231,-36.7125 -19.7534,-42 -0.9971,-2.475 -2.527,-5.85 -3.3996,-7.5 -0.8726,-1.64997 -1.5894,-3.54717 -1.5928,-4.21607 0,-0.6688 -0.6436,-2.6938 -1.4227,-4.5 -0.7791,-1.8061 -2.1456,-4.9618 -3.0367,-7.0125 -0.8911,-2.0507 -2.7601,-6.75708 -4.1534,-10.45858 -1.3933,-3.7016 -2.8179,-7.1908 -3.1659,-7.7539 -0.348,-0.5631 -0.7185,-1.7066 -0.8233,-2.5413 -0.1047,-0.8347 -3.1192,-9.8426 -6.6989,-20.0176 -14.1224,-40.14297 -22.9018,-73.37692 -30.1152,-114 -1.287,-7.24804 -2.5293,-16.40627 -5.0869,-37.5 -0.2667,-2.2 -0.7052,-5.8 -0.9745,-8 -0.2692,-2.2 -0.7087,-6.475 -0.9767,-9.5 -0.8397,-9.47767 -1.786,-17.48593 -2.1095,-17.85094 -0.8033,-0.90656 -8.5712,34.14098 -9.9023,44.67816 -0.2551,2.02003 -1.5915,10.64778 -2.9696,19.17278 -1.3781,8.525 -3.2091,22.925 -4.0689,32 -0.8598,9.075 -1.9994,20.90515 -2.5324,26.28922 -1.5332,15.48541 -1.1965,73.15288 0.5397,92.44438 5.0386,55.98505 13.6357,99.55445 29.1573,147.76635 5.6117,17.4305 8.485,25.6138 10.9379,31.1511 0.7677,1.7332 1.3959,3.5036 1.3959,3.9343 0,0.4307 0.8719,2.6127 1.9375,4.8489 1.0656,2.2361 2.7917,6.3157 3.8357,9.0657 5.1369,13.5313 29.4829,62.2387 38.2379,76.5 3.2076,5.225 7.1577,11.75 8.778,14.5 1.6203,2.75 4.5806,7.1414 6.5784,9.7587 1.9979,2.6172 3.6325,5.0189 3.6325,5.337 0,1.5662 22.6095,33.8731 30,42.8673 1.925,2.3428 5.2338,6.3756 7.353,8.9619 2.1191,2.5864 3.9839,4.5613 4.1439,4.3888 0.16,-0.1725 -0.3297,-3.2387 -1.0882,-6.8137 z m 38.5913,-3.4512 c 0,-0.2482 0.6864,-3.0607 1.5254,-6.25 0.8389,-3.1893 2.1971,-10.7488 3.0181,-16.7988 0.821,-6.05 1.9114,-13.025 2.4232,-15.5 0.5117,-2.475 1.8983,-9.9 3.0812,-16.5 1.183,-6.6 3.6811,-19.8407 5.5514,-29.4239 1.8704,-9.5831 3.4007,-18.528 3.4007,-19.8777 0,-1.3587 -2.1666,-5.4092 -4.8546,-9.0761 -2.6701,-3.6423 -10.3537,-14.829 -17.0746,-24.8594 -6.721,-10.0304 -12.7021,-18.535 -13.2912,-18.8991 -2.4146,-1.4923 0.7645,82.3894 3.7003,97.6362 0.2648,1.375 0.7388,4.75 1.0534,7.5 0.3147,2.75 1.4221,9.5 2.461,15 1.039,5.5 2.6082,14.05 3.4871,19 0.879,4.95 2.1121,10.8 2.7402,13 0.6282,2.2 1.0603,4.3375 0.9603,4.75 -0.1001,0.4125 0.2681,0.75 0.8181,0.75 0.55,0 1,-0.203 1,-0.4512 z m 936.95897,-75.6767 c 15.505,-1.9085 34.3011,-5.2968 36.3263,-6.5484 0.923,-0.5705 0.4167,-12.4015 -1.2976,-30.3237 -0.4998,-5.225 -1.1786,-12.65 -1.5084,-16.5 -0.3297,-3.85 -0.7925,-8.35 -1.0283,-10 -0.2359,-1.65 -1.0874,-8.4 -1.8923,-15 -3.3469,-27.4439 -11.4731,-69.8429 -13.8396,-72.2095 -1.3499,-1.3499 -2.3563,-0.6958 -9.3658,6.0874 -4.3193,4.1799 -8.0993,7.6048 -8.3999,7.6109 -0.3006,0.01 -3.7129,3.0487 -7.5828,6.7612 -9.8832,9.4812 -14.8416,13.8649 -23.4111,20.6982 -4.1027,3.2715 -7.6845,6.2498 -7.9595,6.6184 -0.275,0.3686 -4.6027,3.6204 -9.617,7.2263 -5.0144,3.6058 -10.3166,7.6678 -11.7828,9.0266 -2.9499,2.734 -2.9719,1.5564 0.3436,18.4197 4.9527,25.1909 8.3877,47.2427 9.6204,61.7608 0.3736,4.4 0.9012,8.3782 1.1725,8.8405 0.7692,1.3109 31.9819,-0.2232 50.2223,-2.4684 z m -87.2387,-3.1221 c -1.1017,-10.9672 -3.8599,-30.4854 -5.192,-36.7397 -0.7626,-3.5807 -1.6686,-8.9853 -2.0133,-12.0103 -1.3369,-11.7307 -2.0364,-12.0987 -11.7474,-6.1799 -3.4472,2.101 -10.0926,5.8412 -14.7676,8.3116 -4.675,2.4703 -9.4,5.0169 -10.5,5.6591 -6.0919,3.5567 -28.4268,13.9491 -28.9195,13.4563 -0.3193,-0.3192 -0.5805,-0.055 -0.5805,0.5862 0,0.6417 -0.4481,1.1667 -0.9958,1.1667 -0.5476,0 -4.4055,1.575 -8.573,3.5 -4.1675,1.925 -7.7561,3.5 -7.9746,3.5 -0.2185,0 -2.7732,1.0548 -5.677,2.3439 -2.9038,1.2892 -6.8546,2.9363 -8.7796,3.6603 -4.6668,1.7552 -5.5814,2.6776 -3.3507,3.3793 3.3851,1.0649 48.6515,8.4245 61.8507,10.056 24.5855,3.0389 37.0112,4.3445 42.3738,4.4524 l 5.3739,0.1081 z m 165.9076,-17.3342 c 18.8859,-7.7271 33.7245,-17.8398 50.4824,-34.4047 14.355,-14.1897 19.8077,-21.9539 29.8547,-42.5111 12.856,-26.3046 23.2822,-74.8544 29.0989,-135.5 3.0294,-31.58417 3.2037,-79.42425 0.4027,-110.49995 -1.6929,-18.78093 -4.2731,-41.35721 -5.486,-48 -0.5021,-2.75 -1.1728,-7.025 -1.4905,-9.5 -1.386,-10.80018 -7.0548,-40.15567 -10.1382,-52.5 -0.8243,-3.3 -2.103,-8.475 -2.8416,-11.5 -4.0146,-16.44271 -4.9145,-16.2913 -5.9435,1 -1.3136,22.07258 -6.4811,51.71253 -14.5575,83.5 -1.6769,6.6 -3.2329,12.75517 -3.4579,13.67816 -1.2378,5.07985 -14.228,42.00734 -16.119,45.82184 -1.2269,2.475 -3.8934,8.55 -5.9256,13.5 -3.4565,8.4193 -18.6038,38.5691 -22.2991,44.38498 -0.9138,1.4383 -2.1219,2.9456 -2.6846,3.3497 -0.5627,0.4041 -0.682,0.7416 -0.2651,0.75 0.7625,0.015 -2.4817,5.234 -15.8618,25.51527 -8.5231,12.919 -15.4068,22.7966 -16.3773,23.5 -0.3794,0.275 -1.1014,1.2209 -1.6044,2.1019 -0.503,0.8811 -2.5836,3.5811 -4.6236,6 -9.6958,11.4967 -11.7909,14.5044 -11.7909,16.9266 0,2.3255 1.781,10.9899 5.6469,27.4715 6.7277,28.6825 14.1304,72.3252 15.8595,93.5 0.3369,4.125 0.7819,8.85 0.989,10.5 0.2071,1.65 0.898,9.525 1.5354,17.5 0.6374,7.975 1.3271,15.0625 1.5326,15.75 0.4866,1.627 1.3929,1.5771 6.0645,-0.3342 z m -674.62792,-15.0255 c 4.675,-4.1694 9.625,-8.585 11,-9.8125 1.375,-1.2275 5.875,-5.1032 10,-8.6127 4.125,-3.5095 7.725,-6.6396 8,-6.9557 0.7905,-0.9088 22.9203,-18.109 29,-22.54 5.7106,-4.162 9.504,-6.7722 21.2288,-14.6078 3.8174,-2.5511 6.4725,-4.8011 5.9002,-5 -0.5723,-0.1989 -2.298,-1.3856 -3.8348,-2.6371 -1.5368,-1.2515 -6.3942,-4.8312 -10.7942,-7.9549 -4.4,-3.1237 -8.225,-5.9562 -8.5,-6.2944 -1.16,-1.4268 -11.9962,-8.9752 -12.8845,-8.9752 -0.5335,0 -2.2402,-1.5109 -3.7927,-3.3576 -1.5526,-1.8466 -6.4228,-6.448 -10.8228,-10.2253 -4.4,-3.7773 -10.25,-8.956 -13,-11.5082 -2.75,-2.5523 -8.15,-7.3484 -12,-10.658 -3.85,-3.3096 -8.575,-7.6844 -10.5,-9.7218 -1.925,-2.0374 -5.2034,-4.5822 -7.2853,-5.6551 -2.082,-1.0729 -3.5292,-2.3652 -3.216,-2.8718 0.5833,-0.9439 -2.6915,-4.8653 -12.6698,-15.1713 -3.1191,-3.2215 -5.8191,-6.2546 -6,-6.7403 -0.1809,-0.4857 -3.0289,-3.7768 -6.3289,-7.3135 -7.5421,-8.0833 -13.1384,-14.4253 -14.7518,-16.7175 -1.4539,-2.0657 -9.6365,-11.7727 -11.5696,-13.7251 -0.7268,-0.734 -1.9006,-1.3345 -2.6085,-1.3345 -1.1926,0 -6.3406,6.7524 -11.0701,14.5203 -1.1,1.8067 -5.6,8.5289 -10,14.9382 -8.834,12.8681 -10.9435,16.1167 -17.3896,26.7801 -2.4142,3.9938 -7.4767,11.8658 -11.25,17.4933 -3.7732,5.6276 -6.8604,10.4844 -6.8604,10.793 0,0.3086 -1.7916,3.3182 -3.9812,6.688 l -3.9812,6.127 3.6684,4.58 c 2.0177,2.5191 5.7217,6.8547 8.2312,9.6349 2.5095,2.7801 7.7128,8.6259 11.5628,12.9907 12.1739,13.8017 15.6596,17.3704 17.5538,17.9716 1.0141,0.3219 2.0933,1.3497 2.3981,2.2841 0.7,2.1454 36.9037,39.0881 45.3803,46.3065 3.4827,2.9658 7.4171,5.8156 8.7431,6.3329 1.326,0.5174 2.6567,1.7149 2.957,2.6612 0.3004,0.9464 2.186,2.9981 4.1904,4.5594 10.5188,8.194 14.8745,11.3174 15.7773,11.3137 0.55,0 4.825,-3.4153 9.5,-7.5846 z m 318.66522,-28.1403 c -0.3539,-16.9125 -1.0865,-35.7 -1.6281,-41.75 -0.5416,-6.05 -1.2388,-13.925 -1.5494,-17.5 -0.4852,-5.5849 -2.4467,-20.8117 -4.0901,-31.75 -0.6696,-4.4571 -3.0229,-4.2985 -16.7894,1.1316 -10.8904,4.2957 -34.2811,12.2994 -66.1082,22.6204 -27.7853,9.0104 -68.8239,25.9499 -69.9932,28.8911 -0.3046,0.7662 -0.4308,1.4649 -0.2803,1.5525 0.1504,0.088 4.3235,2.5484 9.2735,5.4685 7.9979,4.7179 54.4339,28.0859 55.8114,28.0859 0.2984,0 4.0629,1.5936 8.3656,3.5413 4.3026,1.9478 8.723,3.9404 9.823,4.4281 3.968,1.7591 24.6362,9.4826 40,14.9476 3.3,1.1738 6.9,2.5209 8,2.9934 5.8343,2.5064 23.4568,7.8028 26.4043,7.9359 l 3.4044,0.1537 z m 42.8348,25.7124 c 1.1,-0.4709 9.65,-3.8264 19,-7.4568 9.35,-3.6304 18.35,-7.2114 20,-7.9579 1.65,-0.7464 5.925,-2.566 9.5,-4.0436 9.672,-3.9973 41.5913,-20.0375 44.6293,-22.4271 1.4522,-1.1424 3.1422,-2.0784 3.7556,-2.0802 1.4538,0 27.6108,-15.4065 29.7829,-17.5374 1.901,-1.8649 1.8166,-2.7005 -1.7129,-16.9594 -3.9623,-16.0075 -13.0626,-44.7213 -20.7591,-65.5 -9.5245,-25.714 -11.8893,-31.8233 -13.2579,-34.25 -0.8531,-1.5125 -1.2962,-2.75 -0.9848,-2.75 0.3114,0 -0.5195,-2.1375 -1.8464,-4.75 -1.3269,-2.6125 -3.1825,-6.4375 -4.1236,-8.5 -1.9407,-4.2535 -2.4868,-4.4295 -6.2683,-2.0205 -2.7978,1.7823 -20.841,14.912 -25.1291,18.2859 -1.3278,1.0448 -2.7903,1.6672 -3.25,1.3831 -0.4596,-0.2841 -0.8357,-0.043 -0.8357,0.5364 0,0.5791 -3.7125,3.4595 -8.25,6.4008 -8.7952,5.7014 -10.0592,6.475 -22.9443,14.0421 -4.5681,2.6828 -9.5255,5.7206 -11.0163,6.7508 -1.4908,1.0301 -6.7051,3.8758 -11.5873,6.3237 -4.8822,2.4479 -9.4454,5.136 -10.1405,5.9735 -1.1489,1.3843 -0.9319,8.1594 0.5087,15.8825 1.4694,7.8772 5.2189,40.4881 5.9435,51.6917 0.3379,5.225 0.7809,10.85 0.9845,12.5 0.2035,1.65 0.6822,15.15 1.0638,30 0.3815,14.85 0.8756,27.3178 1.0978,27.7063 0.4064,0.7102 2.1361,0.3418 5.8401,-1.2439 z m -667.60317,-53.2124 c 1.7876,-6.1875 4.0857,-14.175 5.1069,-17.75 11.3685,-39.798 32.5751,-100.5859 44.0807,-126.3558 4.2578,-9.5365 4.6687,-11.03387 3.3812,-12.32137 -0.8061,-0.8061 -1.4717,-1.996 -1.479,-2.6442 -0.01,-0.6482 -0.9152,-2.3036 -2.0173,-3.6786 -2.4173,-3.0157 -14.9066,-21.68128 -16.4042,-24.51648 -0.5858,-1.109 -4.6651,-7.7576 -9.0651,-14.7745 -4.4,-7.017 -11.4091,-18.4846 -15.5759,-25.4836 -4.1667,-6.99896 -7.9744,-12.7254 -8.4616,-12.7254 -0.4872,0 -1.4571,1.125 -2.1553,2.5 -1.4638,2.8827 -9.8315,26.3263 -11.7786,33 -0.7221,2.475 -2.8963,9.675 -4.8315,16 -3.5011,11.4428 -5.6094,18.94818 -6.2346,22.19458 -0.1803,0.9363 -1.0151,4.0881 -1.8552,7.0039 -7.1975,24.98297 -13.9786,58.96777 -18.1081,90.75217 -1.8819,14.4848 -1.45,16.4848 6.1023,28.2569 2.3668,3.6891 5.0543,8.1891 5.9724,10 0.918,1.8108 3.4144,5.8748 5.5476,9.0311 2.1332,3.1563 3.8875,6.0813 3.8986,6.5 0.011,0.4187 2.9016,4.8113 6.4233,9.7613 3.5218,4.95 7.5919,10.6875 9.0448,12.75 1.4528,2.0625 3.2078,3.75 3.8999,3.75 0.7441,0 2.5869,-4.5982 4.5087,-11.25 z m 452.32107,-45.1317 c 13.9051,-6.8099 27.9821,-13.4021 31.2821,-14.6493 3.3,-1.2471 9.15,-3.5005 13,-5.0075 8.2306,-3.2215 36.1487,-12.6207 49,-16.4968 11.1894,-3.3748 27.2322,-8.7371 34.5,-11.5315 3.025,-1.1631 7.3,-2.7099 9.5,-3.4374 2.2,-0.7275 7.15,-2.6042 11,-4.1705 6.8007,-2.7667 7.0089,-2.9561 7.3143,-6.652 0.4171,-5.0496 -5.3781,-24.7978 -13.5499,-46.1733 -6.8988,-18.04567 -7.6013,-19.69627 -15.8328,-37.20175 -7.5512,-16.0589 -7.8484,-17.0548 -6.5388,-21.9084 2.2125,-8.2002 12.9638,-17.3898 20.3449,-17.3898 4.0406,0 7.7623,2.4245 7.7623,5.0567 0,1.0688 0.3375,1.9461 0.75,1.9496 0.9602,0.01 2.9476,3.4919 11.1204,19.4937 6.7634,13.2423 7.2603,14.3674 12.1461,27.5 1.5346,4.12498 4.2197,11.32498 5.9669,15.99998 1.7472,4.675 5.4024,15.32767 8.1226,23.67277 l 4.9458,15.1727 2.7241,-0.8086 c 3.3015,-0.9801 15.9066,-7.5357 23.3863,-12.1626 8.2233,-5.087 8.1939,-5.0681 14.9946,-9.6192 16.3532,-10.94367 22.1049,-14.86947 23.8154,-16.25507 1.0185,-0.825 6.6227,-5.2538 12.4538,-9.8418 5.831,-4.588 11.0672,-9.21118 11.6359,-10.27388 0.8354,-1.5608 -0.1609,-4.3772 -5.1854,-14.6582 -3.4207,-6.9993 -6.9839,-13.8511 -7.9182,-15.2261 -0.9344,-1.375 -3.7264,-6.325 -6.2046,-11 -5.524,-10.421 -12.5317,-22.50693 -15.3725,-26.51247 -1.1653,-1.64314 -2.4332,-4.00003 -2.8174,-5.23753 -0.3842,-1.2375 -1.1183,-2.25 -1.6312,-2.25 -0.5129,0 -0.9326,-0.52002 -0.9326,-1.15561 0,-0.63558 -1.125,-2.63056 -2.5,-4.43328 -1.375,-1.80272 -2.5,-3.51866 -2.5,-3.81321 0,-0.29454 -2.025,-3.66586 -4.5,-7.49182 -2.475,-3.82596 -4.5,-7.21337 -4.5,-7.52757 0,-0.3142 -2.25,-3.72453 -5,-7.57851 -2.75,-3.85398 -5,-7.2496 -5,-7.54582 0,-0.29623 -0.4591,-1.0821 -1.0203,-1.74639 -0.5611,-0.66428 -3.4605,-4.58279 -6.443,-8.70779 -2.9826,-4.125 -5.8985,-8.04351 -6.4798,-8.70779 -0.5813,-0.66429 -1.0569,-1.47078 -1.0569,-1.79221 0,-0.32143 -0.4463,-1.12792 -0.9918,-1.79221 -0.5455,-0.66428 -3.6113,-4.80779 -6.813,-9.20779 -3.2017,-4.4 -7.085,-9.35 -8.6297,-11 -1.5446,-1.65 -3.5376,-4.125 -4.4288,-5.5 -4.6899,-7.23568 -16.9036,-23.1574 -21.2901,-27.75365 -2.7577,-2.88951 -6.9219,-7.84547 -9.2539,-11.01325 -2.332,-3.16778 -7.1319,-8.80334 -10.6663,-12.52347 -3.5345,-3.72012 -6.575,-7.3099 -6.7566,-7.97728 -0.1816,-0.66738 -0.6323,-1.44268 -1.0017,-1.72289 -0.3693,-0.2802 -2.2012,-2.30946 -4.0708,-4.50946 -5.9219,-6.96834 -32.0834,-35.1203 -42.9238,-46.18955 -3.5929,-3.6688 -5.5755,-3.73376 -8.6966,-0.28492 -0.9828,1.08596 -2.1671,1.97447 -2.6319,1.97447 -0.4647,0 -1.6992,0.7875 -2.7433,1.75 -2.9759,2.74342 -9.2112,7.65762 -10.9883,8.6602 -1.9001,1.07195 -16.2901,12.74122 -20.6134,16.71598 -3.8529,3.54229 -8.9507,7.67428 -14,11.34754 -2.2,1.60045 -4.9323,3.83609 -6.0718,4.9681 -1.1395,1.132 -4.177,3.76808 -6.75,5.85795 -2.573,2.08988 -4.6782,4.41267 -4.6782,5.16176 0,0.74909 5.7375,7.28633 12.75,14.52719 7.0125,7.24086 14.4863,15.71807 16.6084,18.83824 3.5217,5.17798 3.8138,6.11043 3.3468,10.68518 -0.7548,7.39518 -5.415,16.35646 -9.6896,18.63253 -5.5522,2.95636 -10.596,2.44811 -15.4126,-1.55305 -6.0099,-4.99243 -11.603,-10.47293 -11.603,-11.36936 0,-0.43016 -5.4007,-6.10006 -12.0016,-12.59977 l -12.0015,-11.81765 -6.1947,5.34758 c -9.6068,8.29318 -49.43292,48.62084 -68.49002,69.35245 -9.4583,10.28944 -11.6792,12.77836 -18.2873,20.49513 -2.1195,2.475 -9.4046,10.96227 -16.1892,18.8606 -17.0941,19.90004 -20.3365,23.80948 -32.0467,38.6394 -5.6459,7.15 -11.2831,14.1204 -12.5271,15.4898 -1.2441,1.3694 -2.2619,2.7997 -2.2619,3.1786 0,0.3788 -0.5738,1.2834 -1.275,2.0102 -0.7013,0.7268 -3.3714,4.0997 -5.9337,7.4954 l -4.6588,6.1741 3.6837,5.025 c 4.9494,6.75138 14.9634,18.91428 18.6746,22.68178 2.8131,2.8558 10.5092,11.58247 10.5092,11.91647 0,0.1605 12.3861,13.5084 20.1915,21.7595 2.5804,2.7276 5.1157,4.6973 5.634,4.3769 0.5183,-0.3203 1.4593,0.6494 2.0912,2.1549 2.9554,7.0417 42.5553,44.2731 54.7295,51.4561 1.8773,1.1076 4.6374,3.0502 6.1335,4.3168 13.2281,11.1989 12.1887,10.4106 28.22032,21.4014 6.325,4.3363 12.048,7.9243 12.7179,7.9735 0.6698,0.049 12.5948,-5.4823 26.5,-12.2922 z m 382.4813,9.2447 c 3.8319,-2.6365 20.3187,-16.0001 23.8739,-19.3514 0.5902,-0.5564 2.813,-2.3616 4.9396,-4.0116 7.6948,-5.9704 29.9222,-27.8115 40.8611,-40.1508 l 3.6798,-4.1509 -3.0376,-11.9757 c -4.6524,-18.3426 -20.795,-66.36745 -32.0072,-95.22255 -1.1754,-3.025 -2.9767,-8.0474 -4.0028,-11.1608 -1.0262,-3.1134 -2.9584,-8.0634 -4.2939,-11 -1.3355,-2.93655 -3.0324,-7.0267 -3.771,-9.0892 -0.7386,-2.0625 -1.6676,-3.75 -2.0644,-3.75 -0.3969,0 -1.2414,-1.575 -1.8767,-3.5 -0.6353,-1.925 -1.7952,-3.5 -2.5776,-3.5 -0.7823,0 -1.4224,0.3421 -1.4224,0.76022 0,0.41812 -1.2317,2.08853 -2.7371,3.71201 -1.5053,1.62349 -4.7057,5.66889 -7.1119,8.98979 -2.4062,3.32089 -4.8898,6.48798 -5.5191,7.03798 -0.6293,0.55 -2.4219,2.575 -3.9836,4.5 -7.081,8.7285 -21.3907,23.8859 -37.4776,39.6977 l -17.4969,17.19758 3.5224,7.8024 c 1.9372,4.2912 5.8726,13.87727 8.7451,21.30227 2.8726,7.425 5.6615,14.3224 6.1977,15.3276 0.5362,1.0051 2.7852,6.8551 4.998,13 2.2127,6.1448 5.0936,14.0974 6.402,17.6724 3.7498,10.2459 14.823,45.6983 17.4911,56 1.0742,4.1476 2.5665,7 3.6622,7 0.246,0 2.4991,-1.4117 5.0069,-3.137 z m -679.32592,-53.9903 c 1.1697,-1.9498 3.465,-5.5313 5.1008,-7.9589 1.6358,-2.4276 3.8858,-6.0289 5,-8.0028 1.1142,-1.974 3.9094,-6.474 6.2115,-10 2.3021,-3.5261 5.4183,-8.436 6.9248,-10.911 5.9489,-9.7727 22.1645,-34.05317 29.3853,-43.99997 4.1924,-5.77498 7.9391,-11.02878 8.3261,-11.67508 0.7879,-1.3158 -1.178,-6.3249 -2.4823,-6.3249 -0.4617,0 -0.8467,-0.5625 -0.8555,-1.25 -0.01,-0.6875 -1.2463,-2.6997 -2.75,-4.4715 -5.8232,-6.8616 -12.2681,-15.7859 -13.9225,-19.2785 -0.3908,-0.825 -1.5208,-2.3724 -2.511,-3.4386 -0.9903,-1.0662 -1.8005,-2.4438 -1.8005,-3.0614 0,-0.6176 -0.8009,-1.9952 -1.7798,-3.0614 -2.3189,-2.5258 -8.2202,-12.18417 -8.2202,-13.45362 0,-0.54174 -0.675,-0.98498 -1.5,-0.98498 -0.8333,0 -1.5,-0.88889 -1.5,-2 0,-1.1 -0.3447,-2 -0.766,-2 -0.8347,0 -5.8157,-7.32819 -9.2275,-13.57568 -1.1787,-2.15838 -3.0057,-5.27432 -4.0599,-6.92432 -1.0543,-1.65 -2.326,-3.9 -2.8261,-5 -1.5638,-3.44029 -4.8204,-6.55239 -6.2732,-5.99491 -1.2997,0.49874 -4.8473,7.39185 -4.8473,9.41844 0,0.50039 -0.3731,1.0598 -0.8292,1.24314 -1.1197,0.45016 -8.9605,13.69687 -13.2191,22.33333 -1.8985,3.85 -3.8045,7.261 -4.2357,7.58 -1.467,1.0853 -15.3462,28.3243 -29.6557,58.20118 -8.0815,16.8736 -8.1421,14.5523 0.6986,26.77187 2.6076,3.6043 6.9745,9.6793 9.7043,13.5 5.3448,7.4809 7.6925,10.5334 15.4998,20.1531 2.7704,3.4134 5.037,6.6384 5.037,7.1667 0,0.5282 0.3561,1.1104 0.7914,1.2938 0.4353,0.1833 2.1153,2.1333 3.7334,4.3333 4.3752,5.9485 10.8365,13.8982 11.9752,14.7337 1.5701,1.1521 2.5866,0.451 4.8733,-3.361 z m -226.19425,-43.8727 c 6.3963,-27.63417 14.9074,-59.78035 20.784,-78.49995 1.7266,-5.5 3.522,-11.35 3.9898,-13 2.1599,-7.6186 16.4796,-47.22967 19.1599,-53 1.5081,-3.24677 1.8733,-6.58876 0.8564,-7.83595 -1.4242,-1.74668 -8.095,-14.45144 -15.8382,-30.16405 -3.7945,-7.7 -9.014,-18.275 -11.5989,-23.5 -2.5849,-5.225 -5.5117,-11.52636 -6.504,-14.00302 -0.9923,-2.47666 -4.1395,-9.45166 -6.9937,-15.5 -11.1219,-23.56756 -13.0616,-27.99281 -19.0657,-43.49698 -2.8755,-7.425 -7.1733,-18.45 -9.5508,-24.5 -11.3908,-28.98582 -23.7484,-67.81274 -35.5655,-111.74497 -1.2938,-4.80974 -2.6572,-8.74724 -3.0299,-8.75 -1.5402,-0.0114 -14.8224,24.75428 -14.8224,27.63758 0,0.48032 -1.1661,3.06383 -2.5914,5.74115 -9.465,17.78003 -11.9086,36.57932 -11.9086,91.61624 0,36.12385 0.3863,44.44625 2.9941,64.5 0.2146,1.65 0.8969,7.05 1.5164,12 3.2106,25.65614 11.8402,67.83763 18.7191,91.5 1.3591,4.675 3.374,11.65 4.4775,15.5 2.3709,8.27132 7.1891,22.7258 12.6669,38 7.534,21.0077 6.9588,19.546 12.5059,31.7773 1.441,3.1776 2.6201,6.14798 2.6201,6.60098 0,1.2917 17.7883,40.25317 21.0573,46.12167 0.4596,0.825 2.2355,4.425 3.9464,8 1.7109,3.575 3.8577,7.625 4.7707,9 l 1.6598,2.5 1.31,-6.5 c 0.7205,-3.575 2.7162,-12.575 4.4348,-20 z M 1538.0701,997.29673 c 3.2257,-4.7819 6.0444,-9.1174 6.2637,-9.6344 0.2194,-0.5169 2.9111,-4.7649 5.9816,-9.43988 13.9484,-21.2371 31.4634,-56.9361 41.2131,-84 9.6249,-26.71792 14.2957,-43.94644 20.1975,-74.5 10.2429,-53.02715 10.475,-125.05766 0.5255,-163.13498 -6.2945,-24.08974 -19.2026,-42.2456 -41.6993,-58.65204 -9.4728,-6.90832 -28.3833,-14.05537 -32.7529,-12.37862 -1.0501,0.403 -1.2413,7.34349 -0.9729,35.33357 0.3391,35.37784 -0.015,41.44176 -4.0249,68.83207 -2.9612,20.22952 -9.3896,47.64561 -14.6089,62.30451 -1.7028,4.78252 -3.737,10.98749 -4.5204,13.78883 -2.8608,10.22951 -16.8405,43.38874 -26.0931,61.8918 -5.2215,10.44183 -9.799,19.21683 -10.1722,19.5 -0.3733,0.28317 -1.2834,1.58901 -2.0226,2.90187 -0.7393,1.31285 -2.2562,4.01285 -3.3711,6 -1.1148,1.98714 -2.6085,4.44503 -3.3194,5.46197 -1.2692,1.81574 -0.4697,6.44132 1.5818,9.15102 0.4163,0.55 2.3351,4.825 4.2637,9.5 1.9287,4.675 5.5876,13.45 8.1308,19.5 4.1435,9.85681 9.069,22.1151 16.0993,40.0668 2.3068,5.8904 7.1522,19.8225 19.7656,56.83268 l 6.1003,17.89957 3.785,-4.2652 c 2.0817,-2.3459 6.4242,-8.1777 9.6498,-12.95957 z M 667.50438,944.47245 c 11.9417,-23.6303 21.7037,-42.25776 24.3078,-46.38286 1.3288,-2.10507 2.4161,-4.06271 2.4161,-4.35031 0,-0.84294 16.3015,-28.25019 22.3146,-37.51683 8.3494,-12.86708 8.3827,-12.98049 5.4771,-18.6755 -1.3538,-2.65348 -6.7137,-13.1495 -11.9109,-23.3245 -8.2389,-16.1301 -16.1384,-32.5745 -20.4161,-42.5 -0.7111,-1.65 -3.0664,-7.05 -5.2341,-12 -2.1677,-4.95 -5.6867,-13.1625 -7.8199,-18.25 -2.1333,-5.0875 -4.1904,-9.25 -4.5714,-9.25 -0.3811,0 -1.3273,1.2375 -2.1027,2.75 -0.7754,1.5125 -2.4575,4.55 -3.7379,6.75 -1.2804,2.2 -4.3287,7.6 -6.7741,12 -2.4454,4.4 -4.77725,8.45 -5.18205,9 -3.9505,5.36862 -26.9396,51.95654 -37.2559,75.5 -2.7715,6.325 -6.5898,14.84821 -8.4852,18.94047 -1.8953,4.09226 -3.4796,8.62227 -3.5207,10.06668 -0.06,2.11471 5.1472,12.33417 11.2065,21.99285 0.5176,0.825 4.4124,7.575 8.6553,15 7.9937,13.98907 12.5981,21.5319 17.4973,28.6635 1.5731,2.2899 2.8602,4.4751 2.8602,4.8561 0,0.3809 1.3878,2.4448 3.084,4.5865 1.6962,2.1416 2.7428,3.8939 2.3257,3.8939 -0.4171,0 0.1645,1.0125 1.2924,2.25 1.1279,1.2375 3.23695,4.1625 4.68685,6.5 1.4498,2.3375 2.8154,4.25 3.0346,4.25 0.2192,0 3.7528,-6.6375 7.8525,-14.75 z m 164.2239,-10.1805 c 1.65,-2.1049 6.15,-8.0031 10,-13.1069 3.85,-5.1038 10.2625,-13.21559 14.25,-18.02617 3.9875,-4.81059 7.25,-9.23925 7.25,-9.84148 0,-0.60222 0.4472,-1.09495 0.9937,-1.09495 0.5466,0 2.379,-1.9125 4.0721,-4.25 1.6931,-2.3375 4.7438,-6.05 6.7793,-8.25 2.0356,-2.2 5.7157,-6.475 8.178,-9.5 2.4623,-3.025 4.7059,-5.725 4.9857,-6 0.2799,-0.275 3.6399,-4.1 7.4666,-8.5 13.3544,-15.3551 37.4835,-41.22456 60.0246,-64.35397 17.4389,-17.89411 15.0332,-15.52574 26.0429,-25.63926 4.7858,-4.39628 9.0497,-8.89628 9.4753,-10 0.6254,-1.62179 -0.3093,-3.01238 -4.8722,-7.24868 -3.1053,-2.88304 -5.9835,-5.24554 -6.396,-5.25 -0.4125,-0.004 -0.75,-0.61432 -0.75,-1.35528 0,-0.74095 -0.8454,-1.75345 -1.8786,-2.25 -1.8832,-0.90507 -14.0822,-11.62348 -21.2294,-18.65281 -2.097,-2.0625 -4.1165,-3.75 -4.4877,-3.75 -0.3713,0 -1.6266,-1.01401 -2.7896,-2.25337 -1.1631,-1.23935 -5.7147,-5.1481 -10.1147,-8.68611 -4.4,-3.53802 -8.805,-7.249 -9.789,-8.24664 -0.9839,-0.99763 -2.4464,-1.81388 -3.25,-1.81388 -0.8035,0 -1.461,-0.36395 -1.461,-0.80878 0,-1.03086 -16.6969,-14.19122 -18.0048,-14.19122 -0.538,0 -1.5403,-0.9 -2.2273,-2 -1.5517,-2.48477 -5.1984,-2.58416 -7.5179,-0.20491 -6.0096,6.1644 -26.3604,29.39733 -34.75,39.67123 -5.5548,6.80242 -9.8898,11.94112 -10.5735,12.53368 -1.4022,1.21539 -28.9265,35.96853 -28.9265,36.52361 0,0.34058 -0.5625,1.21189 -1.25,1.93623 -2.3702,2.49714 -4.75,5.5645 -4.75,6.12218 0,0.52335 -7.8009,10.32384 -9.0884,11.41798 -0.588,0.49975 -4.0031,5.31866 -13.4116,18.92471 -2.75,3.97689 -6.2332,8.65824 -7.7404,10.403 -1.5072,1.74476 -3.0001,3.95979 -3.3174,4.92229 -0.3173,0.9625 -0.9967,1.75 -1.5096,1.75 -0.5129,0 -0.9326,0.43684 -0.9326,0.97076 0,0.89743 -5.7717,9.89545 -7.0746,11.02924 -0.316,0.275 -1.6412,2.42113 -2.9449,4.76917 l -2.3703,4.26917 3.4304,6.68842 c 1.8868,3.67863 4.4444,8.18242 5.6835,10.00842 1.2392,1.82601 2.9811,4.72785 3.8709,6.44854 0.8898,1.72069 2.0263,3.62077 2.5255,4.2224 1.9476,2.34713 5.7908,8.59388 5.2872,8.59388 -0.2926,0 0.8039,1.9125 2.4367,4.25 2.6231,3.75511 5.9722,8.9444 9.8422,15.25 0.6751,1.1 1.725,3.11584 2.333,4.47965 0.608,1.3638 1.4731,2.7138 1.9223,3 1.0222,0.65118 20.0762,27.90405 20.7659,29.70135 0.8486,2.2115 2.6474,1.4005 5.7922,-2.6115 z M 585.37183,820.47245 c 4.3591,-10.19446 17.2899,-37.82946 18.3655,-39.25 0.6248,-0.825 3.4667,-6.225 6.3153,-12 2.8487,-5.775 6.6758,-13.2 8.5046,-16.5 1.8288,-3.3 5.5,-10.05 8.1583,-15 4.9897,-9.29165 13.0111,-23.19591 17.1503,-29.72856 1.2994,-2.05071 2.3625,-3.97013 2.3625,-4.26538 0,-0.71101 7.1686,-11.65483 8.6921,-13.26957 1.51235,-1.6031 0.29045,-5.93369 -10.648,-37.73649 -2.8375,-8.25 -6.0039,-18.15 -7.0364,-22 -1.9843,-7.39971 -6.8685,-25.95655 -10.1332,-38.5 -4.474,-17.18984 -11.3456,-50.35621 -12.4916,-60.29109 -0.7444,-6.4541 -1.3194,-7.0121 -9.0062,-8.73966 -29.1048,-6.54114 -60.8715,-7.30145 -78.8767,-1.88786 -11.4203,3.43371 -21.2357,9.1286 -29.576,17.15985 -7.3501,7.07779 -13.93,14.48583 -13.9181,15.66988 0.093,9.32923 12.8406,59.42949 22.9216,90.08888 1.5372,4.675 4.4816,13.9 6.5432,20.5 2.0615,6.6 4.1197,12.9 4.5737,14 3.0186,7.31381 7.9553,20.67219 8.5367,23.09983 0.3821,1.59509 1.0194,3.35017 1.4162,3.90017 0.3969,0.55 1.5549,3.25 2.5734,6 1.0185,2.75 2.429,6.125 3.1344,7.5 0.7054,1.375 1.2853,3.1975 1.2887,4.05 0,0.8525 0.3834,1.9775 0.8445,2.5 0.4611,0.5225 2.3266,4.775 4.1457,9.45 11.5367,29.65017 40.1658,90 42.6946,90 0.7886,0 2.3478,-2.1375 3.4649,-4.75 z m 169.15755,-21.98866 c 2.5283,-4.72102 18.3052,-27.00362 25.6088,-36.1687 4.2044,-5.27595 8.3886,-10.767 9.2983,-12.20233 0.9097,-1.43533 2.2549,-3.23533 2.9893,-4 0.7344,-0.76467 3.9718,-4.91925 7.1943,-9.2324 5.431,-7.26916 13.7425,-17.50714 22.0476,-27.15791 1.8933,-2.2 7.3681,-8.725 12.1663,-14.5 12.3896,-14.91199 18.7863,-22.23092 27.6443,-31.63004 4.2625,-4.5229 7.75,-8.91139 7.75,-9.7522 0,-0.84081 -2.4336,-3.01127 -5.408,-4.82325 -2.9744,-1.81198 -9.9527,-6.44451 -15.5073,-10.29451 -5.5545,-3.85 -10.8834,-7.45546 -11.8419,-8.01213 -0.9586,-0.55668 -2.8678,-1.72515 -4.2428,-2.59662 -12.4883,-7.915 -18.9666,-11.89125 -19.374,-11.89125 -0.2665,0 -3.1039,-1.72555 -6.3053,-3.83455 -3.2014,-2.10901 -12.2551,-7.51313 -20.1193,-12.00917 -15.8695,-9.07265 -15.4538,-9.02656 -21.2877,-2.36046 -6.221,7.10843 -32.4821,41.21801 -37.1127,48.20418 -0.9113,1.375 -3.9325,5.65 -6.7138,9.5 -2.7812,3.85 -9.5438,13.67792 -15.0279,21.83983 l -9.9712,14.83984 1.5615,4.16016 c 2.5137,6.69648 8.3984,21.98628 9.2987,24.16017 0.4556,1.1 2.0352,4.925 3.5101,8.5 3.5332,8.56415 3.755,9.06587 8.4832,19.19041 2.2321,4.77972 4.0584,8.89698 4.0584,9.14945 0,0.83487 17.0034,36.20757 22.3698,46.5367 l 1.8698,3.59896 2.9313,-3.48776 c 1.6122,-1.91827 3.4708,-4.49516 4.1302,-5.72642 z M 1024.7283,726.5285 c 1.1,-1.02158 6.5,-5.64062 12,-10.26452 5.5,-4.6239 11.6281,-9.78735 13.6181,-11.47431 1.9899,-1.68697 5.1066,-4.19222 6.9259,-5.56722 1.8194,-1.375 3.7913,-2.97258 4.382,-3.55019 0.5907,-0.5776 3.5495,-2.87158 6.5752,-5.09773 3.0256,-2.22615 6.134,-4.81007 6.9075,-5.74205 0.7735,-0.93197 4.4254,-3.7201 8.1154,-6.19582 3.69,-2.47573 7.685,-5.54007 8.8777,-6.80964 l 2.1685,-2.30832 -4.2851,-3.80588 c -2.3569,-2.09324 -7.7157,-6.99739 -11.9085,-10.89813 -12.5978,-11.72022 -31.5612,-28.11484 -58.8411,-50.87066 -0.8055,-0.67187 -5.3055,-4.22163 -10.0001,-7.88836 -4.6945,-3.66673 -9.28902,-7.34517 -10.20982,-8.17431 -2.793,-2.51478 -5.7981,-3.79254 -7.0964,-3.01733 -0.6761,0.40374 -4.8293,4.19741 -9.2293,8.43039 -4.4,4.23297 -9.575,9.05299 -11.5,10.71114 -1.925,1.65816 -5.7944,5.1978 -8.5986,7.86586 -2.8042,2.66807 -6.7417,6.29963 -8.75,8.07014 -2.0083,1.77051 -3.6514,3.53653 -3.6514,3.92449 0,0.38795 -2.3625,2.87985 -5.25,5.53755 -2.8875,2.65769 -5.7,5.30417 -6.25,5.88105 -0.55,0.57688 -3.5875,3.56521 -6.75,6.64073 -6.1937,6.02339 -7.0376,8.53758 -3.501,10.43034 1.237,0.662 6.5245,4.59346 11.75,8.73658 18.9395,15.01637 23.5076,18.66791 25.9821,20.76888 10.4444,8.86808 12.6732,10.88547 13.8256,12.51429 0.7187,1.01584 1.7716,1.84698 2.3398,1.84698 0.5682,0 2.2302,1.10405 3.6933,2.45345 1.4631,1.34939 4.3126,3.93689 6.3321,5.75 13.05332,11.71883 21.65922,19.7231 24.19512,22.50361 3.0994,3.39828 4.0949,3.34919 8.133,-0.40101 z M 684.87468,644.46475 c 1.1806,-2.05827 3.7736,-5.9923 5.7622,-8.7423 11.8989,-16.45448 21.9716,-30.06702 22.5687,-30.5 0.3792,-0.275 3.7588,-4.55 7.5101,-9.5 9.2248,-12.17239 13.8643,-17.93411 14.7626,-18.33333 2.5808,-1.14702 -0.8221,-3.71456 -12.5,-9.43144 -23.8213,-11.66166 -36.5498,-17.73523 -37.1679,-17.73523 -0.3341,0 -6.4262,-2.44982 -13.5381,-5.44405 -7.1118,-2.99423 -14.5104,-5.74041 -16.4411,-6.10262 l -3.51045,-0.65857 0.5952,3.85262 c 0.4848,3.13852 9.35375,42.95892 10.76925,48.35262 4.5109,17.18806 6.5643,24.42793 11.2739,39.75 3.0854,10.0375 6.0956,18.24653 6.6895,18.2423 0.5938,-0.004 2.0456,-1.69174 3.2261,-3.75 z m 442.87862,1.71718 c 0.3537,-0.57229 2.5178,-2.21456 4.8091,-3.64949 2.2912,-1.43493 4.3909,-2.91791 4.6659,-3.2955 0.5669,-0.77834 11.8142,-8.01449 12.4572,-8.01449 0.23,0 4.7324,-2.925 10.0053,-6.5 5.2729,-3.575 9.8439,-6.5 10.1579,-6.5 0.314,0 1.7653,-0.82911 3.2252,-1.84247 1.4599,-1.01336 5.1294,-3.1326 8.1544,-4.70942 3.025,-1.57682 6.751,-3.71299 8.2801,-4.74705 3.0885,-2.0887 16.4953,-9.42207 24.2199,-13.24807 7.372,-3.65133 12.5,-6.71562 12.5,-7.46946 0,-1.39678 -34.1715,-34.09962 -47.5261,-45.48353 -7.1621,-6.10516 -10.5052,-9.00964 -12.4739,-10.8373 -0.825,-0.76589 -4.2,-3.56766 -7.5,-6.22615 -3.3,-2.65849 -6.6015,-5.42608 -7.3366,-6.15021 -0.7351,-0.72413 -2.982,-2.54729 -4.9932,-4.05147 -2.0111,-1.50418 -4.5836,-3.63487 -5.7165,-4.73487 -1.133,-1.1 -4.8815,-4.025 -8.33,-6.5 -3.4486,-2.475 -9.1423,-6.6375 -12.6526,-9.25 -3.5104,-2.6125 -6.9696,-4.75 -7.687,-4.75 -0.7175,0 -2.4249,1.01638 -3.7943,2.25861 -1.3694,1.24224 -8.1148,6.49333 -14.9898,11.66908 -6.875,5.17575 -15.425,11.7246 -19,14.55299 -3.575,2.82839 -11,8.70242 -16.5,13.0534 -5.5,4.35098 -10.5059,8.37326 -11.1242,8.9384 -4.0436,3.69595 -13.9527,12.22577 -15.3438,13.20809 -0.9195,0.64932 -3.207,2.61459 -5.0832,4.36727 l -3.4114,3.18669 3.9813,3.43588 c 2.1897,1.88974 5.5563,4.64942 7.4813,6.13263 1.925,1.48322 5.3,4.34916 7.5,6.36876 3.6487,3.34955 7.411,6.56992 10,8.55966 2.741,2.10654 12.4125,10.13155 15.5,12.86118 1.925,1.70189 7.5457,6.65227 12.4905,11.00085 4.9448,4.34858 9.7462,8.58151 10.6697,9.40651 0.9236,0.825 4.2549,3.75 7.4028,6.5 3.148,2.75 10.0466,9.15386 15.3303,14.2308 9.1962,8.83637 12.9511,10.94805 14.6317,8.22868 z M 919.43798,603.72245 c 12.2937,-12.1 26.9508,-26.22211 32.5713,-31.38247 5.6204,-5.16035 10.219,-9.9167 10.219,-10.56966 0,-1.23177 -3.503,-4.64485 -6.0434,-5.88827 -0.8011,-0.39214 -4.1566,-2.70448 -7.4566,-5.13853 -9.9492,-7.33842 -53.0584,-36.00999 -60,-39.90549 -1.65,-0.92594 -5.25,-3.0802 -8,-4.78724 -2.75,-1.70704 -8.2395,-4.81835 -12.1988,-6.91402 l -7.1988,-3.81032 -8.3012,7.67477 c -21.6809,20.04473 -56.8012,56.90333 -56.8012,59.61257 0,1.57185 2.9146,3.6399 11.5,8.15964 3.3,1.73727 8.7116,4.91151 12.0259,7.05385 8.9732,5.80036 9.7967,6.31016 11.9741,7.41241 1.1,0.55685 3.2379,1.79327 4.751,2.74761 6.1794,3.89761 23.4564,15.0054 39.749,25.55563 1.375,0.89038 6.1,4.11615 10.5,7.16838 4.4,3.05223 8.5304,5.42838 9.1787,5.28033 0.6484,-0.14806 11.2373,-10.16919 23.531,-22.26919 z m 351.68802,-52 c 16.592,-15.86473 18.2394,-17.73412 27.4572,-31.1583 14.4395,-21.02874 20.6834,-36.08505 25.196,-60.75639 2.1371,-11.6834 2.4445,-15.6121 1.9176,-24.5 -0.3452,-5.82192 -1.0054,-11.93531 -1.4671,-13.58531 -0.4617,-1.65 -1.1439,-5.25 -1.5159,-8 -0.3721,-2.75 -1.282,-6.125 -2.022,-7.5 -0.7401,-1.375 -2.1135,-4.975 -3.052,-8 -0.9385,-3.025 -1.9776,-5.725 -2.309,-6 -0.3314,-0.275 -1.9525,-3.16734 -3.6025,-6.42742 -3.3747,-6.66781 -8.1808,-12.57258 -10.2332,-12.57258 -1.5288,0 -55.2112,27.13152 -59.21,29.92524 -1.4063,0.98243 -6.6068,4.03605 -11.5568,6.78584 -8.3385,4.63211 -12.8363,7.28768 -26,15.35074 -35.2186,21.57216 -60.1264,38.81435 -59.2659,41.02636 0.1462,0.37594 7.6909,6.53028 16.7659,13.6763 9.075,7.14602 17.8638,14.28488 19.5308,15.86414 1.6669,1.57926 5.0419,4.49749 7.5,6.48496 4.749,3.8398 7.0305,5.90329 19.0576,17.23607 4.1736,3.93269 11.3455,10.52535 15.9374,14.65035 4.592,4.125 13.7472,12.78842 20.345,19.25204 l 11.9959,11.75205 2.5593,-2.25205 c 1.4075,-1.23862 6.7948,-6.30204 11.9717,-11.25204 z M 765.83318,539.96313 c 2.6923,-2.89262 10.0701,-10.82601 16.3951,-17.62974 13.0994,-14.09086 17.3585,-18.42469 32.54,-33.11094 5.9698,-5.775 10.962,-11.175 11.0938,-12 0.224,-1.40284 -12.5341,-8.15489 -31.1338,-16.47713 -3.3,-1.47654 -8.925,-4.04522 -12.5,-5.70817 -11.7177,-5.45061 -21.3659,-9.72318 -28.5,-12.62091 -12.83,-5.21123 -25.2285,-10.03529 -27.5,-10.69978 -1.375,-0.40224 -6.55,-2.30199 -11.5,-4.22166 -4.95,-1.91967 -9.9327,-3.6606 -11.0727,-3.86874 -1.14,-0.20813 -6.765,-1.90442 -12.5,-3.76953 -12.7627,-4.15059 -28.2973,-8.4953 -33.2472,-9.29857 -2.97985,-0.48357 -3.68005,-0.28689 -3.68005,1.03365 0,0.89696 -0.4036,1.63084 -0.8969,1.63084 -1.2794,0 -6.8214,17.4794 -8.1258,25.62872 -1.6932,10.57821 -1.868,28.42563 -0.4298,43.87128 0.717,7.7 1.3371,14.04416 1.378,14.09813 0.3902,0.51422 9.48865,4.00438 17.57445,6.74151 5.5,1.86182 12.25,4.29947 15,5.41701 2.75,1.11754 8.375,3.3885 12.5,5.04658 20.5909,8.27672 46.4277,19.96982 61,27.60719 3.575,1.87366 6.9972,3.44781 7.6049,3.49812 0.6077,0.0503 3.3077,-2.27523 6,-5.16786 z m 232.0758,-7.89866 c 2.57312,-2.76357 4.49542,-4.41418 9.28182,-7.97004 1.9456,-1.44541 4.4474,-3.47041 5.5595,-4.5 4.9481,-4.58092 45.9811,-36.89917 54.7777,-43.14381 3.4046,-2.41685 7.5488,-5.63045 10.8948,-8.44822 2.3758,-2.00074 1.7837,-4.71139 -1.1995,-5.49152 -1.0973,-0.28693 -1.995,-0.93371 -1.995,-1.43729 0,-0.50357 -0.7875,-1.23859 -1.75,-1.63336 -0.9625,-0.39478 -5.8,-3.41448 -10.75,-6.71046 -11.3492,-7.55693 -12.6059,-8.33288 -14.75,-9.10797 -0.9625,-0.34794 -1.75,-1.03013 -1.75,-1.51598 0,-0.48585 -0.422,-0.88337 -0.9378,-0.88337 -0.5158,0 -7.3783,-3.67541 -15.25,-8.16758 -7.8717,-4.49217 -22.9852,-12.60239 -33.58552,-18.0227 -17.1848,-8.78714 -19.5008,-9.7172 -21.3719,-8.58242 -1.1542,0.69999 -3.0045,1.7945 -4.1118,2.43226 -1.1072,0.63776 -2.2899,1.53776 -2.6281,2 -0.3382,0.46224 -4.8899,3.72503 -10.1149,7.25064 -5.225,3.52561 -12.1431,8.25061 -15.3735,10.5 -3.2304,2.24939 -6.6261,4.5398 -7.5461,5.0898 -2.374,1.41936 -18.1864,13.72425 -27.227,21.18752 -4.2056,3.47186 -7.8551,6.31248 -8.1101,6.31248 -0.2549,0 -2.1825,1.62122 -4.2835,3.6027 -4.2058,3.96653 -4.0568,5.49206 0.8166,8.36506 1.4295,0.84273 6.7896,3.97877 11.9114,6.96898 5.1217,2.99021 10.4372,6.19931 11.8122,7.13132 1.375,0.93202 13.507,9.00362 26.96,17.93689 13.4531,8.93327 26.9483,18.09917 29.9895,20.36868 14.9479,11.15502 16.0479,11.49821 20.7312,6.46839 z M 607.93023,468.20832 c 0.111,-10.16723 0.6068,-22.76087 1.1016,-27.98587 0.4949,-5.225 0.7126,-9.84148 0.4837,-10.25883 -0.7038,-1.28332 -31.064,22.6182 -42.8812,33.75883 -2.3336,2.2 -7.2046,6.63149 -10.8245,9.84775 -3.6198,3.21626 -6.5815,6.25376 -6.5815,6.75 0,0.49624 4.1625,0.90707 9.25,0.91296 11.4299,0.0132 34.5306,2.4781 41.25,4.40143 8.4383,2.41535 7.9744,3.40101 8.2019,-17.42627 z M 862.91198,445.4529 c 2.851,-2.60175 5.776,-5.18949 6.5,-5.75055 0.7239,-0.56105 6.0413,-4.85681 11.8163,-9.54612 10.0656,-8.17332 23.7723,-18.76957 28.3722,-21.93378 1.1994,-0.825 5.6519,-4.0875 9.8945,-7.25 4.2427,-3.1625 8.0558,-5.76422 8.4736,-5.7816 1.4242,-0.0592 6.2597,-4.86807 6.2597,-6.22516 0,-0.75587 -2.7576,-2.33198 -6.25,-3.57227 -58.1892,-20.66497 -103.3231,-29.42181 -151.25,-29.34537 -24.9001,0.0397 -47.7925,3.85725 -64,10.67265 -5.6943,2.39448 -23.84,11.50118 -24.8349,12.46377 -0.9388,0.90831 2.2017,2.12263 20.8349,8.05609 12.6007,4.01252 29.9192,10.13255 34,12.01502 1.1,0.50743 6.275,2.46942 11.5,4.35999 19.0558,6.895 53.1214,21.98926 78.5,34.78297 9.9,4.99073 18.8876,9.69277 19.9725,10.44898 3.1169,2.17267 4.6798,1.65311 10.2112,-3.39462 z m 257.07082,-7.8971 c 3.71,-2.56666 8.3223,-5.82916 10.2494,-7.25 1.9272,-1.42084 4.2403,-3.03335 5.1401,-3.58335 2.9023,-1.77385 27.9263,-17.89361 38.856,-25.02995 3.575,-2.33422 7.85,-4.9816 9.5,-5.88306 1.65,-0.90146 4.6,-2.63981 6.5556,-3.863 10.5193,-6.57969 22.5103,-13.55955 30.9444,-18.01243 5.225,-2.75861 11.75,-6.44406 14.5,-8.18989 2.75,-1.74582 12.0875,-6.65796 20.75,-10.91585 8.6625,-4.25789 15.75,-8.05578 15.75,-8.43974 0,-1.67687 -14.9737,-9.87975 -30,-16.43462 -11.2164,-4.89287 -44.8481,-14.61663 -52.6413,-15.21992 -6.2256,-0.48194 -16.4238,1.66467 -45.3587,9.54754 -6.3042,1.71747 -20.8741,6.60505 -28,9.39278 -10.7291,4.19735 -24.633,9.9659 -25.5,10.57961 -0.55,0.38934 -2.6779,1.24828 -4.7288,1.90875 -2.0508,0.66048 -9.9258,4.25148 -17.5,7.97999 -7.5741,3.72851 -15.5712,7.61081 -17.7712,8.62735 -2.2,1.01653 -4.225,2.1074 -4.5,2.42415 -0.275,0.31675 -3.425,2.12655 -7,4.02178 -18.663,9.89386 -23.3969,12.59492 -23.6718,13.50651 -0.1658,0.55 4.0728,3.25 9.4192,6 5.3463,2.75 15.8028,8.7079 23.2366,13.23979 7.4338,4.53188 15.091,9.08049 17.016,10.10802 7.963,4.25051 9.3285,5.06016 9.9004,5.87006 0.3298,0.46704 4.9967,3.53408 10.371,6.81565 16.565,10.11463 19.3043,11.87526 22.8239,14.66952 1.8726,1.48668 3.7442,2.72418 4.1592,2.75 0.415,0.0258 3.79,-2.05303 7.5,-4.61969 z M 976.89638,362.95771 c 1.1924,-0.67939 3.4424,-1.95717 5,-2.8395 1.5575,-0.88234 5.7569,-3.32295 9.3319,-5.42358 17.12422,-10.06204 53.72312,-29.33569 61.81642,-32.55366 3.126,-1.24292 6.8781,-3.08305 8.338,-4.08918 1.4599,-1.00614 3.1007,-1.82934 3.6462,-1.82934 0.5455,0 4.301,-1.51687 8.3456,-3.37082 4.0446,-1.85395 12.7235,-5.54217 19.2866,-8.19603 14.4995,-5.86316 14.4228,-5.90916 -12.4119,-7.43771 -17.6866,-1.00747 -89.23512,-1.41925 -95.52092,-0.54976 -1.65,0.22824 -8.175,0.69973 -14.5,1.04776 -13.708,0.75426 -35.0714,2.9359 -49.8242,5.08802 -5.8717,0.85657 -13.3758,1.95151 -16.6758,2.43321 -6.4242,0.93773 -30.791,6.07756 -52,10.96864 -7.15,1.64889 -15.3625,3.51431 -18.25,4.14539 -2.8875,0.63107 -5.25,1.43156 -5.25,1.77885 0,0.3473 7.7625,1.92247 17.25,3.50039 19.9033,3.31024 42.4438,8.77402 64.25,15.5741 3.85,1.20059 8.35,2.55969 10,3.02021 1.65,0.46052 9.525,3.36952 17.5,6.46444 7.975,3.09492 17.9409,6.90758 22.1464,8.47257 4.2055,1.56499 8.4805,3.33019 9.5,3.92268 2.4616,1.43062 5.3689,1.38471 8.0217,-0.12668 z"
         id="path11" />
      <path
         style="fill:#518e86"
         d="m 398.22823,1665.3081 c -5.3255,-1.2229 -13.8844,-6.6501 -18.2711,-11.5857 -4.3453,-4.889 -9.0774,-16.4114 -10.0581,-24.4907 -0.7841,-6.4597 2.7098,-23.2508 5.1997,-24.9889 0.41,-0.2862 1.5116,-1.6454 2.448,-3.0204 0.9365,-1.375 6.9854,-7.9413 13.4421,-14.5918 6.4566,-6.6504 16.2394,-16.9731 21.7394,-22.9392 10.519,-11.4105 23.6039,-25.2919 32,-33.948 2.75,-2.8351 7.4529,-7.8247 10.451,-11.0879 2.9981,-3.2632 12.6948,-13.5831 21.5483,-22.9331 8.8535,-9.35 18.7756,-19.8734 22.049,-23.3853 3.2734,-3.5119 8.2017,-8.735 10.9517,-11.6069 10.4715,-10.9356 20.2129,-21.3056 25.8698,-27.5394 3.2284,-3.5576 10.69,-11.6434 16.5814,-17.9684 5.8913,-6.325 14.9499,-16.0597 20.1301,-21.6326 15.4654,-16.6377 46.5146,-49.6403 64.3532,-68.402 4.986,-5.244 12.4405,-13.1493 16.5655,-17.5673 17.14825,-18.3665 23.75115,-25.3854 32.39285,-34.434 15.0905,-15.8011 35.9224,-38.0333 38.9682,-41.5875 1.5736,-1.8363 5.3537,-5.9348 8.4003,-9.1077 13.7959,-14.368 21.354,-22.4474 29.2426,-31.2599 4.6728,-5.22 10.071,-11.0887 11.996,-13.0415 7.1075,-7.2101 5.4409,-7.8485 21.2664,8.1465 7.8285,7.9123 19.8894,19.4379 26.802,25.6124 6.9126,6.1745 13.183,12.3748 13.9342,13.7785 1.2936,2.4171 1.1259,2.8022 -3.169,7.2737 -2.4942,2.5968 -7.8646,8.3137 -11.9343,12.7043 -4.0696,4.3906 -9.1993,9.8359 -11.3993,12.1007 -2.2,2.2648 -6.3148,6.7725 -9.144,10.0171 -2.8291,3.2446 -8.0041,8.8976 -11.5,12.5621 -7.0458,7.3859 -17.6522,18.709 -50.8978,54.3372 -12.3172,13.2 -26.9331,28.725 -32.4797,34.5 -5.5467,5.775 -13.2109,13.8718 -17.0317,17.9929 -3.8207,4.1211 -7.1718,7.7294 -7.4468,8.0183 -0.275,0.289 -4.777,5.0172 -10.0045,10.5071 -13.3312,14.0005 -35.69895,37.8338 -38.03245,40.5244 -1.0747,1.2391 -7.4948,8.1489 -14.267,15.3551 -6.7721,7.2062 -15.4066,16.4772 -19.1877,20.6022 -3.7811,4.125 -9.8878,10.65 -13.5704,14.5 -3.6826,3.85 -10.4626,11.0366 -15.0668,15.9701 -32.693,35.0324 -46.9097,50.324 -53.4625,57.5045 -13.5389,14.8358 -20.1124,21.9294 -26.8973,29.0254 -3.9442,4.125 -11.2458,12 -16.2259,17.5 -4.9801,5.5 -11.4691,12.5276 -14.42,15.617 -2.951,3.0893 -9.83,10.4427 -15.2868,16.3407 -13.2102,14.2786 -17.7134,16.643 -32.5786,17.1052 -5.775,0.1796 -12.075,-0.035 -14,-0.4772 z m 459.29935,-469.3357 c -2.0736,-1.7875 -5.3518,-4.5851 -7.2848,-6.2168 -9.6837,-8.1744 -43.0241,-42.8182 -42.9879,-44.6684 0.015,-0.7506 1.7022,-3.201 3.75,-5.4452 2.0478,-2.2443 5.4402,-6.0693 7.5387,-8.5 2.0984,-2.4308 8.4248,-9.1446 14.0585,-14.9196 5.6338,-5.775 15.2569,-15.9 21.3846,-22.5 6.1278,-6.6 15.1014,-16.135 19.9415,-21.1889 l 8.8,-9.189 3,1.5474 c 1.65,0.851 6.15,4.5667 10,8.257 3.85,3.6904 8.8,8.2008 11,10.0232 2.2,1.8224 6.25,5.4028 9,7.9565 2.75,2.5537 8.6,7.7336 13,11.5109 4.4,3.7773 9.2649,8.3722 10.8108,10.2108 l 2.8109,3.3431 -4.3503,4.4127 c -2.3926,2.427 -8.1575,8.5795 -12.8108,13.6724 -4.6533,5.0929 -10.8828,11.7762 -13.8432,14.8518 -2.9605,3.0757 -12.8517,13.6921 -21.9806,23.5921 -9.1288,9.9 -18.3674,19.9125 -20.53,22.25 -2.1627,2.3375 -4.7433,4.25 -5.7347,4.25 -0.9914,0 -3.4991,-1.4625 -5.5727,-3.25 z m 107.6437,-109.5066 c -14.4015,-9.8196 -50.2935,-43.97 -53.0076,-50.4354 -1.4348,-3.4178 -1.041,-3.9881 12.2488,-17.7392 5.6736,-5.8706 15.3371,-16.0502 21.4745,-22.62127 6.1373,-6.5711 12.8873,-13.789 15,-16.0396 2.1126,-2.25068 8.1162,-8.74288 13.3412,-14.42708 5.225,-5.6842 12.875,-13.8117 17,-18.0611 4.125,-4.2494 11.32502,-11.8935 16.00002,-16.987 4.675,-5.0935 10.525,-11.37437 13,-13.95758 2.475,-2.58322 9.225,-9.8098 15,-16.05906 12.5781,-13.61112 20.6229,-22.2223 32,-34.25322 4.675,-4.94365 10.075,-10.65626 12,-12.69468 1.925,-2.03842 5.975,-6.51468 9,-9.94723 3.025,-3.43255 8.425,-9.26523 12,-12.9615 3.575,-3.69627 10.0084,-10.50925 14.2965,-15.13996 4.2881,-4.63071 11.4881,-12.27116 16,-16.97877 4.5119,-4.70762 12.7645,-13.48262 18.3391,-19.5 14.9538,-16.14154 23.1949,-24.4407 24.2698,-24.4407 1.1593,0 13.3207,13.4184 17.5459,19.35937 1.6768,2.35768 5.4112,6.76165 8.2987,9.78661 6.5935,6.90729 24.25,30.735 24.25,32.72572 0,0.49071 -3.6562,4.88283 -8.1249,9.76025 -15.1681,16.55527 -63.517,67.92762 -80.3439,85.36805 -6.6331,6.875 -15.6537,16.5039 -20.0457,21.3975 -10.3257,11.505 -10.3268,11.5062 -21.4855,23.1774 -19.4572,20.3509 -41.7642,44.06758 -45.5467,48.42505 -2.1484,2.475 -8.0112,8.775 -13.0285,14 -5.0173,5.225 -12.2606,12.875 -16.0963,17 -3.8357,4.125 -10.3303,11.1 -14.4324,15.5 -4.1022,4.4 -10.59452,11.3649 -14.42732,15.4776 -9.5629,10.2611 -21.0875,22.0238 -21.5701,22.0158 -0.2193,0 -1.5493,-0.7911 -2.9556,-1.75 z M 1244.6233,781.95401 c -2.6923,-2.89764 -7.0319,-7.96014 -9.6434,-11.25 -2.6116,-3.28986 -9.0437,-11.15656 -14.2935,-17.48156 -5.2499,-6.325 -12.2257,-15.00091 -15.502,-19.27979 l -5.9567,-7.7798 5.6883,-6.7202 c 3.1286,-3.69612 7.2912,-8.33433 9.2503,-10.30714 1.959,-1.97281 7.8369,-8.20271 13.0619,-13.84423 14.7734,-15.95111 16.7108,-18.02544 24.8631,-26.61995 4.2003,-4.42812 13.0369,-13.8408 19.6369,-20.91708 16.189,-17.35725 43.5205,-46.33688 50.533,-53.58004 1.3568,-1.40153 7.192,-7.6857 12.967,-13.96482 9.3987,-10.21912 18.4488,-19.77299 36.1713,-38.18444 3.1192,-3.24047 10.0942,-10.70873 15.5,-16.59613 5.4058,-5.88741 12.5287,-13.41131 15.8287,-16.71979 3.3,-3.30848 11.0411,-11.40893 17.2025,-18.001 26.9094,-28.79047 31.6492,-33.21275 51.7975,-48.32745 6.05,-4.53855 13.4604,-10.14331 16.4675,-12.45502 5.2563,-4.04084 16.2882,-11.97431 26.2898,-18.90603 2.6164,-1.8134 6.2559,-4.42209 8.0877,-5.79709 1.8317,-1.375 4.416,-3.27794 5.7427,-4.22875 8.816,-6.31795 14.6587,-10.45507 32.5846,-23.07258 11.0948,-7.80927 21.2301,-15.09867 22.5228,-16.19867 1.2928,-1.1 5.0402,-4.01088 8.3277,-6.46863 12.6536,-9.45995 22.3029,-19.43958 25.0461,-25.90349 1.6391,-3.86214 1.8974,-12.38806 0.4569,-15.0796 -0.5358,-1.00113 -2.6733,-2.82641 -4.75,-4.05618 -5.1278,-3.03657 -15.4288,-3.03368 -29.2758,0.008 -13.0003,2.85588 -25.1593,3.13987 -29.7331,0.69446 -3.8213,-2.04311 -6.2707,-6.30815 -6.2571,-10.8951 0.015,-5.25476 4.3703,-13.22897 12.3799,-22.6697 6.9267,-8.16418 22.7477,-23.44508 26.4688,-25.56519 0.9028,-0.51437 2.3165,-1.6085 3.1415,-2.43139 2.757,-2.74995 13.0503,-8.98037 22.3223,-13.5114 17.5072,-8.55539 31.8759,-12.11015 48.6777,-12.04263 29.8435,0.11991 46.4361,16.14978 44.6627,43.14777 -0.9584,14.59 -2.8425,20.80484 -11.7546,38.77288 -5.5843,11.25864 -7.5381,14.54164 -13.5305,22.73571 -6.1256,8.37623 -25.1756,29.8652 -34.5265,38.94706 -3.2181,3.12552 -5.8511,6.16302 -5.8511,6.75 0,0.58697 -0.5625,1.07501 -1.25,1.08451 -0.6875,0.009 -2.15,1.30446 -3.25,2.87768 -1.1,1.57321 -9.7542,10.94649 -19.2316,20.8295 -9.4774,9.88302 -19.8274,20.7921 -23,24.24241 -3.1726,3.45032 -9.1434,9.72033 -13.2684,13.93336 -8.6242,8.80821 -33.2548,34.98255 -40.5547,43.09649 -2.7199,3.02319 -5.7328,6.22597 -6.6953,7.11729 -0.9625,0.89132 -1.75,2.1303 -1.75,2.75329 0,0.62298 -0.6216,1.1327 -1.3813,1.1327 -0.7597,0 -2.5252,1.49971 -3.9233,3.3327 -1.3981,1.83298 -4.939,5.80267 -7.8687,8.82154 -2.9297,3.01886 -8.4767,9.05532 -12.3267,13.41437 -3.85,4.35905 -10.15,11.12412 -14,15.0335 -3.85,3.90938 -11.2649,11.7857 -16.4776,17.50293 -5.2126,5.71723 -14.0354,15.11996 -19.6062,20.89496 -5.5707,5.775 -12.5558,13.1976 -15.5224,16.49466 -2.9666,3.29706 -10.1589,10.94706 -15.9829,17 -5.824,6.05294 -14.12,14.83034 -18.4356,19.50534 -4.3156,4.675 -12.3755,13.23759 -17.9109,19.02798 -5.5354,5.79039 -12.2719,12.99039 -14.9699,16 -5.7778,6.44502 -24.4483,26.45015 -33.3445,35.72821 -3.4375,3.58503 -6.25,6.68291 -6.25,6.88417 0,0.20126 -5.122,5.65202 -11.3823,12.11279 -6.2603,6.46077 -13.5275,14.12357 -16.1494,17.02844 -2.6219,2.90488 -7.9623,8.6399 -11.8677,12.7445 -3.9053,4.10461 -10.9256,11.62271 -15.6006,16.7069 -4.675,5.08419 -12.1,12.96554 -16.5,17.51409 -4.4,4.54856 -8.15,8.71624 -8.3333,9.26151 -0.7039,2.09331 -3.055,0.79937 -7.7716,-4.27703 z"
         id="path10"
         sodipodi:nodetypes="csssssssssssssssssssssssssssssssssssssscsssssscsssssssscsssssscssssssssssssssssssssssssssssssssssssscssssscsssssssssssssssssssssssscsssssssssscsssssssssssssssssssssssssssss" />
    </g>
  </g>
</svg>
